<svg width="26" height="26" viewBox="0 0 26 26" fill="none" xmlns="http://www.w3.org/2000/svg">
<path d="M6.08102 23.5444C4.88661 23.5446 3.74005 23.0751 2.88879 22.2372L2.7949 22.1433C2.36721 21.726 2.02737 21.2273 1.79542 20.6765C1.56347 20.1258 1.44411 19.5342 1.44435 18.9367C1.44284 18.2897 1.56973 17.6489 1.81768 17.0513C2.06563 16.4538 2.4297 15.9114 2.88879 15.4555L14.0832 4.38388C15.2206 3.19963 16.7777 2.50954 18.419 2.46226C20.0603 2.41497 21.6545 3.01429 22.8582 4.1311C23.4011 4.67262 23.8308 5.31678 24.1222 6.02604C24.4135 6.73529 24.5608 7.49545 24.5555 8.26221C24.549 9.11856 24.3735 9.96519 24.0388 10.7535C23.7042 11.5417 23.2171 12.2561 22.6055 12.8555L12.5449 22.8222C12.4824 22.9063 12.4023 22.9758 12.3102 23.0259C12.2181 23.076 12.1162 23.1054 12.0116 23.1121C11.907 23.1188 11.8021 23.1027 11.7044 23.0648C11.6066 23.0269 11.5183 22.9682 11.4455 22.8928C11.3728 22.8174 11.3173 22.727 11.2829 22.6279C11.2486 22.5289 11.2362 22.4236 11.2467 22.3193C11.2571 22.215 11.2902 22.1142 11.3435 22.0239C11.3968 21.9337 11.4691 21.8561 11.5555 21.7967L21.5871 11.83C22.0635 11.3649 22.4434 10.8104 22.7049 10.1981C22.9664 9.58584 23.1044 8.92795 23.111 8.26221C23.1162 7.68606 23.0065 7.11465 22.7883 6.5814C22.57 6.04816 22.2476 5.5638 21.8399 5.15666C20.9067 4.30651 19.677 3.85667 18.4154 3.90395C17.1539 3.95122 15.9613 4.49182 15.0943 5.40944L3.93602 16.4811C3.6072 16.8004 3.34525 17.182 3.16545 17.6036C2.98565 18.0252 2.8916 18.4783 2.88879 18.9367C2.88725 19.3391 2.96562 19.7379 3.11935 20.1098C3.27308 20.4817 3.49911 20.8194 3.78435 21.1033L3.87824 21.1972C4.52445 21.7923 5.37848 22.1098 6.25648 22.0814C7.13448 22.0531 7.96623 21.6811 8.57268 21.0455L18.2143 11.5122C18.3967 11.3279 18.5404 11.109 18.6372 10.8684C18.7339 10.6278 18.7817 10.3704 18.7777 10.1111C18.7793 9.88591 18.736 9.66266 18.6505 9.45435C18.5649 9.24604 18.4388 9.05684 18.2793 8.89777C17.9146 8.56332 17.433 8.3857 16.9385 8.40327C16.4439 8.42083 15.9761 8.63217 15.636 8.99166L8.99157 15.5783C8.85557 15.7134 8.6715 15.7888 8.47985 15.7882C8.2882 15.7875 8.10467 15.7107 7.96963 15.5747C7.83459 15.4387 7.7591 15.2546 7.75978 15.063C7.76046 14.8713 7.83724 14.6878 7.97324 14.5528L14.6466 7.94444C15.2583 7.31778 16.0918 6.95672 16.9673 6.93916C17.8429 6.92159 18.6902 7.24893 19.3266 7.85055C19.6192 8.14846 19.8492 8.50197 20.003 8.89022C20.1569 9.27847 20.2314 9.6936 20.2221 10.1111C20.2214 10.5607 20.1309 11.0056 19.956 11.4198C19.7812 11.834 19.5254 12.2092 19.2038 12.5233L9.59102 22.0855C8.65927 23.0158 7.39765 23.5402 6.08102 23.5444Z" fill="white"/>
</svg>
