<svg width="24" height="24" viewBox="0 0 24 24" fill="none" xmlns="http://www.w3.org/2000/svg">
<path d="M12.9403 14L18.467 8.47336C18.5762 8.34582 18.6333 8.18177 18.6268 8.01399C18.6203 7.8462 18.5507 7.68704 18.432 7.56831C18.3133 7.44958 18.1541 7.38003 17.9863 7.37355C17.8186 7.36707 17.6545 7.42414 17.527 7.53336L12.0003 13.06L6.47364 7.52669C6.34811 7.40115 6.17784 7.33063 6.00031 7.33063C5.82277 7.33063 5.65251 7.40115 5.52697 7.52669C5.40144 7.65222 5.33091 7.82249 5.33091 8.00002C5.33091 8.17756 5.40144 8.34782 5.52697 8.47336L11.0603 14L5.52697 19.5267C5.45719 19.5865 5.40051 19.66 5.36049 19.7427C5.32048 19.8254 5.29799 19.9155 5.29444 20.0073C5.2909 20.0991 5.30637 20.1907 5.33988 20.2762C5.3734 20.3618 5.42424 20.4395 5.48921 20.5045C5.55418 20.5694 5.63188 20.6203 5.71743 20.6538C5.80298 20.6873 5.89453 20.7028 5.98634 20.6992C6.07816 20.6957 6.16824 20.6732 6.25095 20.6332C6.33366 20.5932 6.40721 20.5365 6.46697 20.4667L12.0003 14.94L17.527 20.4667C17.6545 20.5759 17.8186 20.633 17.9863 20.6265C18.1541 20.62 18.3133 20.5505 18.432 20.4317C18.5507 20.313 18.6203 20.1538 18.6268 19.9861C18.6333 19.8183 18.5762 19.6542 18.467 19.5267L12.9403 14Z" fill="#04064D"/>
</svg>
