<svg width="835" height="407" viewBox="0 0 835 407" fill="none" xmlns="http://www.w3.org/2000/svg">
<path fill-rule="evenodd" clip-rule="evenodd" d="M224.939 0.474053C224.277 1.30949 223.984 4.98171 224.38 7.48132C224.673 9.32705 226.658 17.2681 227.996 21.9489C228.209 22.6932 227.675 23.1571 224.339 25.1254C216.182 29.9368 200.709 36.5148 190.209 39.6348C186.809 40.6451 186.162 41.2229 186.089 43.3146C186.024 45.1963 184.697 46.233 181.608 46.8153C180.128 47.0943 179.116 47.557 178.638 48.1724C177.58 49.5375 177.709 52.186 178.945 54.5074C179.785 56.0854 179.903 56.6464 179.538 57.3279C179.287 57.796 179.198 58.6431 179.341 59.2104C179.712 60.6834 185.642 66.7126 191.516 71.5867C194.282 73.8822 196.827 76.1626 197.173 76.6541L197.802 77.5477L196.718 76.7139C188.887 70.6885 187.682 69.9983 187.251 71.2918C187.048 71.8984 195.077 81.2078 200.887 87.1048C203.569 89.8265 207.857 93.6326 210.416 95.5624C212.974 97.4922 215.251 99.3125 215.476 99.6078C215.742 99.958 215.705 102.035 215.368 105.584C214.832 111.242 214.319 113.279 208.862 131.416C207.495 135.961 205.449 142.869 204.316 146.768C203.183 150.667 202.034 154.291 201.762 154.821C201.49 155.351 200.262 156.82 199.031 158.085C196.774 160.407 196.233 161.665 196.159 164.758C196.133 165.887 196.358 166.332 197.194 166.804C198.142 167.34 198.436 167.325 199.816 166.672C201.15 166.04 201.484 166.017 202.179 166.508C207.08 169.974 213.047 174.472 213.677 175.174C214.24 175.801 214.51 176.863 214.62 178.887C216.805 218.949 218.426 232.584 222.963 249.063C223.785 252.048 224.359 254.88 224.239 255.358C224.098 255.919 224.754 257.533 226.093 259.918L228.166 263.609L226.954 263.367C225.104 262.998 224.435 264.051 225.591 265.514C226.835 267.09 230.747 273.21 238.48 285.68C246.159 298.064 254.614 310.952 259.748 318.097C263.282 323.016 263.333 323.122 262.426 323.63C260.612 324.646 229.499 334.208 228.005 334.208C227.197 334.208 224.81 335.1 218.546 337.74C217.178 338.317 214.941 338.813 213.044 338.961C206.368 339.479 193.27 342.687 184.844 345.866C182.327 346.815 180.239 347.546 180.204 347.489C180.169 347.432 179.816 345.503 179.42 343.203C178.439 337.493 177.181 333.457 176.025 332.302C175.374 331.653 174.904 330.451 174.586 328.627C174.325 327.136 173.807 325.193 173.434 324.31C173.061 323.427 172.506 321.646 172.2 320.354C171.895 319.062 171.166 317.104 170.58 316.003C169.994 314.903 169.514 313.785 169.514 313.519C169.514 313.253 169.028 312.387 168.433 311.594C166.619 309.178 164.613 304.852 164.078 302.205C163.481 299.252 162.669 297.812 161.6 297.812C160.76 297.812 159.542 295.425 157.543 289.864C156.257 286.283 151.215 276.06 148.354 271.229C146.669 268.384 146.41 267.627 146.3 265.218C146.231 263.702 145.781 261.374 145.299 260.044C144.395 257.543 143.621 249.808 144.09 247.961C144.227 247.423 144.746 246.732 145.245 246.424C146.074 245.913 146.307 246.018 147.984 247.662C149.798 249.439 149.85 249.458 152.733 249.432C157.048 249.393 158.684 247.984 160.141 243.056C160.768 240.934 160.753 240.448 159.89 234.758L158.973 228.714L160.158 227.007C162.354 223.841 165.012 221.215 167.079 220.169C169.457 218.966 170.006 218.047 168.849 217.202C167.74 216.391 166.445 216.794 163.124 218.981C161.568 220.005 160.295 220.748 160.295 220.631C160.295 220.515 162.493 217.498 165.179 213.928L170.063 207.436L171.482 207.702C172.746 207.939 173.072 207.788 174.456 206.33C175.311 205.428 177.028 202.818 178.271 200.527C179.515 198.237 181.118 195.506 181.833 194.457C182.919 192.866 190.947 185.371 194.51 182.623C195.983 181.487 196.452 180.42 195.916 179.421C195.669 178.961 195.1 178.584 194.651 178.584C194.202 178.584 191.283 180.823 188.163 183.559C183.636 187.53 182.189 188.57 181.002 188.708C179.879 188.839 179.416 188.696 179.11 188.125C178.586 187.149 176.56 187.135 175.692 188.101C175.33 188.504 174.871 189.464 174.673 190.236C174.384 191.362 173.993 191.748 172.688 192.195C170.702 192.877 168.076 195.398 161.274 203.155C157.013 208.015 155.345 209.583 152.202 211.682C150.084 213.097 146.684 215.561 144.645 217.158C140.962 220.044 140.117 220.425 140.984 218.808C142.12 216.689 141.062 211.752 138.752 208.402C137.75 206.946 137.394 206.03 137.538 205.276C137.69 204.482 137.438 203.927 136.556 203.11C135.903 202.506 135.237 202.011 135.076 202.011C134.914 202.011 134.724 201.313 134.652 200.46C134.546 199.198 134.223 198.706 132.923 197.827C131.635 196.957 131.063 196.097 129.989 193.417C128.745 190.313 128.565 190.08 127.321 189.96C125.255 189.76 124.666 191.377 125.765 194.233C125.965 194.753 125.739 194.9 124.743 194.9C124.041 194.9 123.35 194.711 123.207 194.481C123.065 194.251 122.054 194.063 120.961 194.063H118.974L119.414 190.261C119.854 186.463 119.857 186.457 121.531 185.334C123.76 183.839 124.673 181.932 124.673 178.765C124.674 175.567 123.812 172.656 121.525 168.131C118.719 162.578 117.579 161.241 114.747 160.183C111.621 159.014 110.38 159.354 106.51 162.438C102.308 165.785 96.6048 171.394 96.1266 172.651C95.8241 173.444 95.9028 174.522 96.4158 176.612L97.1207 179.483L95.182 182.315C93.1604 185.269 92.7837 186.685 93.9064 187.115C94.8962 187.494 94.9059 187.489 96.4346 185.824L97.8532 184.277V189.184C97.8532 195.871 98.8866 198.068 101.625 197.2C102.192 197.021 102.463 197.125 102.463 197.523C102.463 197.926 101.501 198.283 99.4247 198.651C94.3787 199.546 86.9553 201.517 85.5526 202.334C84.5515 202.917 84.1642 203.501 83.9459 204.753C83.404 207.863 83.0742 208.774 82.397 209.026C81.0342 209.533 78.1568 212.251 78.1568 213.031C78.1568 213.472 77.3233 214.609 76.3046 215.557C75.2854 216.505 74.3173 217.819 74.1526 218.476C73.7511 220.076 74.8667 222.35 76.5011 223.264C77.9741 224.087 78.0202 222.766 76.0296 236.734C74.6635 246.317 74.4388 252.226 75.4098 253.03C76.3724 253.828 77.8836 253.375 78.49 252.108C78.8491 251.358 79.368 250.958 79.9819 250.958C80.4994 250.958 81.1289 250.752 81.3808 250.5C81.6984 250.183 82.0835 250.174 82.6397 250.472C83.1342 250.735 83.6722 250.753 84.0465 250.517C85.0007 249.914 85.2811 250.047 85.2811 251.103C85.2811 251.643 85.6582 252.519 86.1192 253.049C86.7306 253.753 86.9573 254.614 86.9573 256.235C86.9573 257.916 87.1606 258.644 87.7955 259.235C88.2565 259.663 89.0841 261.318 89.6356 262.911C90.1867 264.505 91.0332 266.715 91.5173 267.822C92.0013 268.928 92.5939 271.062 92.834 272.563L93.2711 275.293L91.6857 276.976C90.8136 277.901 88.9253 279.815 87.4891 281.228C84.3767 284.29 83.6764 286.099 83.3345 291.955C82.9317 298.858 85.2211 306.149 88.8365 309.475C92.0306 312.414 97.2946 313.271 100.796 311.423C101.598 310.999 103.332 310.534 104.65 310.389C107.014 310.129 107.049 310.141 107.302 311.29C107.493 312.157 107.807 312.454 108.535 312.454C109.673 312.454 109.663 312.366 110.404 329.351C110.673 335.529 111.02 339.562 111.312 339.914C111.955 340.688 113.34 340.631 114.269 339.791C114.951 339.174 115.035 339.171 115.035 339.757C115.035 340.118 115.134 340.672 115.255 340.987C115.399 341.361 115.001 341.699 114.107 341.963C111.376 342.767 111.511 345.431 114.78 355.28L116.568 360.663L113.811 361.909C102.564 366.992 97.717 369.096 89.2622 372.56C84.321 374.584 76.0954 377.716 75.7191 377.716C75.5934 377.716 76.7035 376.985 78.1857 376.093C80.2388 374.856 80.9122 374.211 81.012 373.388C81.3359 370.72 78.7859 371.552 63.9084 378.967C60.3358 380.748 55.1498 383.063 52.3839 384.112C44.4702 387.112 37.7835 389.775 25.1443 394.958C18.6906 397.604 11.9959 400.324 10.2673 401C8.35545 401.749 6.97754 402.556 6.74956 403.06C6.5438 403.516 4.94085 404.58 3.18745 405.424L0 406.958L3.77164 406.86C5.84605 406.805 7.92045 406.609 8.38143 406.423C9.04356 406.155 9.08757 406.179 8.59097 406.536C8.13837 406.861 15.1402 406.989 33.5794 406.994C55.4121 406.999 59.4185 406.907 60.7008 406.372C62.567 405.594 62.683 405.594 62.3838 406.372C62.1693 406.93 105.251 407 448.571 407H835V291.822V176.644L823.999 180.319C814.727 183.416 794.043 189.078 792.183 189.028C791.877 189.019 794.078 187.965 797.074 186.684C802.245 184.473 804.233 183.426 802.478 183.837C788.648 187.073 769.92 192.125 763.548 194.339C760.552 195.379 755.177 197.244 751.605 198.482C748.032 199.72 739.98 202.028 733.711 203.61L722.313 206.488L720.958 205.092C720.213 204.325 719.687 203.613 719.791 203.51C719.894 203.407 722.088 202.572 724.665 201.654C730.413 199.607 730.716 199.446 730.253 198.698C729.951 198.211 729.581 198.202 728 198.644C725.996 199.204 725.203 199.017 725.203 197.984C725.203 197.261 724.928 197.324 720.218 199.126C718.513 199.778 716.98 200.227 716.811 200.123C716.643 200.018 714.086 196.777 711.13 192.919C708.174 189.062 704.039 183.74 701.942 181.094C699.844 178.448 696.671 174.079 694.89 171.384C693.109 168.69 691.468 166.373 691.245 166.235C690.277 165.637 690.993 165.335 692.935 165.521C694.087 165.631 695.03 165.615 695.03 165.483C695.03 165.039 690.26 157.051 689.114 155.575C687.964 154.095 681.499 143.546 680.205 141.038C679.778 140.211 679.184 139.678 678.689 139.678C678.183 139.678 677.199 138.765 676.094 137.273C674.255 134.79 669.886 126.594 669.886 125.629C669.886 125.329 669.462 124.786 668.943 124.423C668.067 123.809 668.007 123.487 668.097 119.902C668.186 116.356 667.218 104.469 666.7 102.763C666.578 102.362 666.602 101.836 666.753 101.592C667.178 100.905 668.21 101.966 668.21 103.091C668.21 103.649 669.051 104.984 670.22 106.281C671.326 107.508 673.412 109.97 674.856 111.752C676.519 113.806 677.892 115.096 678.603 115.274C679.221 115.429 679.977 115.806 680.284 116.112C680.987 116.814 682.305 116.832 682.74 116.146C682.922 115.859 683.381 114.494 683.76 113.113C684.14 111.733 684.94 109.474 685.539 108.093C686.139 106.713 686.633 104.978 686.639 104.238C686.645 103.363 686.921 102.748 687.427 102.478C688.473 101.918 689.624 97.6763 689.87 93.4711C690.113 89.3157 690.596 87.9553 691.95 87.6156C693.151 87.3148 694.192 85.2197 694.192 83.1041C694.192 81.8592 694.523 81.486 697.603 79.2625C700.869 76.9043 701.132 76.7951 703.821 76.688C707.533 76.5399 709.503 75.6894 710.378 73.8575C710.871 72.8263 711.666 72.1352 713.17 71.4323C714.439 70.8387 716.023 69.5812 717.166 68.2592C718.632 66.5641 719.261 66.1198 719.95 66.2921C722.208 66.8582 724.656 62.4174 723.462 59.9203C722.996 58.946 722.587 58.7063 721.219 58.6063C719.878 58.5084 718.988 58.8197 716.74 60.1751C715.197 61.1051 713.669 61.8661 713.346 61.8661C712.65 61.8661 709.826 63.8432 707.183 66.1809C706.146 67.0983 703.219 68.8424 700.679 70.056C698.139 71.27 694.18 73.4923 691.882 74.9949L687.703 77.7263L686.432 76.9779C685.733 76.5662 684.276 76.1082 683.193 75.9601C681.52 75.7312 681.059 75.8333 680.119 76.6403C679.239 77.3962 678.958 78.0991 678.745 80.082L678.477 82.5741L676.444 77.7631C675.327 75.1171 673.861 71.1638 673.188 68.9779C671.596 63.8134 670.296 61.2302 668.185 59.0422C666.964 57.7763 666.13 57.2643 665.289 57.2643C664.582 57.2643 664.003 56.9894 663.845 56.579C663.629 56.0172 663.169 55.9365 661.283 56.131C658.541 56.4134 656.582 55.9293 655.767 54.7672C655.057 53.7552 653.306 53.6556 651.615 54.5312L650.43 55.145L646.966 48.5698C643.676 42.3231 643.008 40.3648 643.86 39.4637C644.423 38.8688 645.357 27.8957 645.211 23.5876C645.141 21.5168 644.818 19.1878 644.493 18.4118C644.169 17.6358 643.903 16.5347 643.903 15.9649C643.903 14.6375 642.198 13.0482 638.877 11.2816C636.747 10.1483 635.703 9.86965 633.073 9.73243C625.51 9.33835 619.178 11.3644 619.178 14.1773C619.178 16.4611 616.695 22.9601 615.822 22.9601C615.599 22.9601 615.461 23.3679 615.516 23.8662C615.601 24.6355 615.057 25.0112 611.908 26.3591C607.485 28.2521 606.834 28.7102 607.473 29.4791C607.831 29.9096 607.626 30.1091 606.535 30.3894C605.562 30.64 605.099 31.0262 605.005 31.6654C604.883 32.5017 605.048 32.5807 606.891 32.569C609.082 32.5552 614.24 31.9486 616.072 31.4897C617.171 31.2144 617.202 31.2529 616.942 32.5502C616.774 33.3931 616.897 34.3286 617.273 35.0536C617.602 35.6903 618.173 38.3597 618.54 40.9852C618.908 43.6112 619.292 46.151 619.393 46.6291C619.626 47.7306 623.242 49.7341 624.997 49.7341C626.084 49.7341 626.302 49.8968 626.302 50.7076C626.302 51.551 626.47 51.6564 627.56 51.4966C629.025 51.282 629.026 51.2895 628.155 55.0399C627.401 58.2875 627.353 58.3733 626.627 57.7947C626.324 57.5534 625.285 57.4822 624.225 57.6303C622.679 57.847 622.316 58.0717 622.112 58.9376C621.934 59.6957 621.411 60.1324 620.208 60.5253C619.296 60.8231 617.795 61.4138 616.873 61.838C615.951 62.2622 613.594 63.1797 611.635 63.8766C604.272 66.4959 603.237 67.2585 603.765 69.677C603.857 70.0978 603.512 71.5825 602.998 72.9769C601.757 76.345 597.642 91.7701 596.325 97.9939C595.747 100.723 595.244 104.394 595.207 106.152C595.147 109.003 595.283 109.619 596.466 111.858C597.196 113.239 598.928 116.798 600.317 119.769L602.841 125.169L602.209 128.223C601.464 131.825 601.375 140.377 602.036 144.819C602.741 149.549 604.043 151.567 608.165 154.32C610.059 155.586 612.204 156.955 612.93 157.363C614.109 158.025 614.221 158.249 613.974 159.454C613.822 160.197 613.333 164.57 612.886 169.171C612.44 173.773 611.755 179.904 611.365 182.796C610.676 187.902 610.679 188.102 611.459 189.699C612.1 191.008 612.563 191.401 613.73 191.628C614.537 191.786 615.884 192.155 616.725 192.45C618.203 192.968 618.26 193.065 618.521 195.511C619.046 200.433 620.08 206.074 621.745 213.097C623.984 222.544 625.611 227.786 627.325 231.067L628.738 233.772L626.996 234.779C624.64 236.142 621.904 237.3 619.42 237.986C617.427 238.537 617.388 238.578 618.267 239.161C619.668 240.089 619.419 241.278 617.672 242.007C614.451 243.35 601.026 245.443 591.1 246.15C587.234 246.426 583.615 247.091 582.892 247.66C582.14 248.252 578.894 249.291 579.165 248.853C579.303 248.63 579.169 248.44 578.867 248.43C578.566 248.42 577.171 246.867 575.767 244.979C573.545 241.988 572.735 241.261 569.481 239.34C567.427 238.128 565.087 236.518 564.28 235.762C559.74 231.508 555.945 229.038 552.256 227.937C550.52 227.419 550.484 227.368 549.035 223.393C548.229 221.182 546.157 215.137 544.43 209.96C542.703 204.783 539.674 195.858 537.699 190.126C535.723 184.394 534.107 179.473 534.107 179.189C534.107 178.906 534.625 178.549 535.259 178.396C537.193 177.927 539.974 176.449 539.974 175.889C539.974 175.598 541.011 174.397 542.279 173.219C543.546 172.041 544.581 170.931 544.577 170.752C544.544 169.054 541.799 168.634 536.792 169.561C534.739 169.941 532.558 170.33 531.945 170.425C530.877 170.592 530.772 170.427 529.332 166.329C527.126 160.049 521.115 141.546 521.115 141.034C521.115 140.792 522.011 140.289 523.104 139.917C524.961 139.285 525.128 139.288 525.619 139.958C526.114 140.633 526.144 140.633 526.144 139.946C526.144 139.493 526.739 138.983 527.716 138.598C532.411 136.747 537.028 133.167 539.574 129.4C541.797 126.112 542.003 125.431 541.026 124.621C540.524 124.206 539.678 124.28 536.73 124.999C534.711 125.491 530.042 126.435 526.354 127.098C518.993 128.419 516.789 129.241 509.942 133.222C507.675 134.54 503.558 136.916 500.795 138.503C494.651 142.029 493.457 143.093 493.457 145.035C493.457 146.323 493.553 146.442 494.4 146.2C497.46 145.326 500.536 145.045 505.224 145.209L510.496 145.393L514.016 143.851L517.536 142.308L520.821 151.557C526.701 168.109 527.798 171.623 527.282 172.244C526.581 173.087 522.688 175.229 521.849 175.234C520.995 175.238 520.905 174.778 521.618 174.066C522.009 173.676 522.009 173.564 521.618 173.564C521.342 173.564 520.738 173.94 520.277 174.401C519.816 174.861 519.355 175.237 519.253 175.237C519.15 175.237 518.373 173.922 517.528 172.315C515.857 169.142 515.877 169.155 510.618 168.059C508.295 167.575 505.797 167.831 506.217 168.509C506.532 169.017 505.667 169.607 503.724 170.209C502.802 170.494 501.837 170.992 501.579 171.314C500.969 172.077 495.295 174.837 491.568 176.184C489.956 176.766 487.219 178.008 485.485 178.944C481.515 181.087 478.847 182.035 477.637 181.733C476.179 181.368 476.523 180.824 478.096 181.007C479.098 181.124 480.324 180.754 482.392 179.709L485.285 178.247L483.051 178.394C481.769 178.479 480.179 178.917 479.322 179.422C478.276 180.038 477.695 180.17 477.387 179.861C477.144 179.619 477.079 179.421 477.243 179.421C477.407 179.421 476.783 177.915 475.856 176.074L474.17 172.728L474.587 169.276C474.816 167.378 475.285 163.512 475.629 160.685C475.973 157.858 476.382 151.975 476.539 147.612C476.822 139.742 476.818 139.678 475.945 139.678C474.764 139.678 473.762 141.205 473.755 143.014C473.752 143.825 473.28 147.781 472.707 151.806C472.134 155.83 471.665 160.176 471.665 161.463C471.665 162.75 471.538 163.93 471.383 164.084C471.228 164.24 470.567 163.282 469.917 161.958C469.265 160.633 468.264 159.025 467.692 158.384C466.736 157.314 466.574 157.268 465.701 157.812C464.269 158.705 459.183 159.696 456.578 159.59C451.467 159.383 450.883 159.293 449.944 158.571C448.974 157.827 448.987 157.821 451.62 157.848C454.062 157.874 454.284 157.801 454.408 156.935C454.481 156.417 454.709 155.993 454.915 155.993C456.019 155.993 456.752 147.215 455.734 146.198C455.226 145.691 455.211 141.702 455.709 139.561C456.054 138.078 455.961 137.839 454.209 135.692C452.359 133.425 452.159 132.65 453.828 134.214C454.692 135.024 454.693 135.024 454.693 133.501C454.693 132.337 454.495 131.921 453.854 131.737C453.105 131.523 447.522 128.766 444.216 126.976C442.653 126.131 440.725 126.097 439.851 126.901C437.949 128.649 435.754 130.364 435.134 130.588C434.748 130.728 434.371 131.266 434.296 131.784C434.2 132.441 433.754 132.83 432.823 133.07C431.301 133.461 431.324 133.408 430.184 139.106C429.718 141.437 429.054 144.143 428.709 145.12C427.999 147.13 427.899 148.72 428.463 149.067C429.119 149.472 430.043 148.881 430.574 147.717C431.207 146.329 431.617 146.927 432.041 149.856C432.249 151.29 432.734 152.32 433.716 153.411C434.844 154.665 435.146 155.41 435.359 157.458C435.911 162.786 436.032 162.305 433.872 163.388C432.793 163.929 430.907 164.556 429.682 164.781C428.456 165.007 426.76 165.497 425.912 165.871C424.447 166.518 424.339 166.706 423.692 169.744C423.318 171.5 422.551 175.101 421.988 177.747C421.424 180.393 420.755 183.663 420.501 185.014C420.163 186.812 419.832 187.523 419.264 187.671C418.723 187.812 418.45 188.333 418.361 189.393L418.233 190.913L416.348 190.809C411.69 190.553 409.642 190.202 409.642 189.664C409.642 188.626 407.504 184.859 406.916 184.859C406.482 184.859 406.296 185.599 406.204 187.683L406.08 190.507L401.393 190.8C394.004 191.261 387.806 192.284 386.593 193.242C386.017 193.698 384.839 194.542 383.974 195.118C382.225 196.284 381.991 197.326 383.228 198.444C383.832 198.99 385.155 199.279 388.152 199.523C390.407 199.706 395.645 200.161 399.794 200.535C404.092 200.922 410.1 201.161 413.758 201.09C419.47 200.979 420.222 201.045 420.581 201.684C420.803 202.08 421.145 204.903 421.341 207.959C421.713 213.745 422.17 215.665 423.275 216.089C423.635 216.227 425.274 215.916 426.918 215.398C429.079 214.717 430.437 213.966 431.823 212.687C433.36 211.268 434.067 210.908 435.396 210.867C436.308 210.839 437.201 211.047 437.381 211.329C437.561 211.612 437.71 214.521 437.714 217.794L437.72 223.746L436.6 224.479C435.717 225.056 433.983 225.291 428.398 225.587C423.906 225.826 421.168 225.816 420.912 225.561C420.691 225.34 420.185 223.952 419.788 222.475C419.289 220.622 418.803 219.675 418.216 219.417C417.749 219.211 416.807 218.097 416.123 216.941C415.44 215.785 414.645 214.761 414.357 214.665C413.496 214.38 413.743 216.427 414.881 218.994C415.457 220.295 415.928 221.689 415.928 222.093C415.928 222.496 416.204 223.485 416.54 224.289C417.262 226.012 417.09 226.275 415.242 226.275C413.912 226.275 413.829 226.178 413.187 223.87C412.819 222.547 411.949 219.631 411.255 217.39L409.994 213.316L410.688 207.884C411.07 204.897 411.263 202.259 411.116 202.023C410.568 201.137 409.237 201.608 408.553 202.929C407.647 204.678 406.29 209.443 406.29 210.875C406.29 211.495 406.101 212.119 405.871 212.261C404.886 212.869 405.629 220.435 407.166 225.432C407.954 227.995 407.959 228.174 407.274 228.674C406.875 228.965 406.31 229.204 406.019 229.204C405.728 229.204 404.316 227.651 402.883 225.752C396.557 217.375 389.018 208.989 384.784 205.621C383.322 204.457 382.844 203.825 383.051 203.327C383.916 201.24 383.931 201.269 380.157 197.897C379.482 197.294 370.804 184.583 369.842 182.788C369.199 181.59 368.468 172.378 368.785 169.48L369.093 166.661L369.986 167.889C370.477 168.564 371.464 169.788 372.179 170.608C372.894 171.429 374.072 173.348 374.796 174.874C376.625 178.73 379.42 180.395 382.152 179.256C383.61 178.648 388.326 173.625 389.891 171.012C390.803 169.49 390.928 169.417 391.438 170.1C392.356 171.333 393.262 170.339 396.323 164.741C398.781 160.244 399.147 159.298 399.058 157.672C398.978 156.216 398.778 155.762 398.167 155.644C397.735 155.561 397.199 155.747 396.976 156.057C396.507 156.711 396.63 156.345 398.329 152.019C398.961 150.409 399.971 148.009 400.574 146.685C401.566 144.506 401.792 144.28 402.974 144.28C403.923 144.28 404.695 143.858 405.808 142.732C407.625 140.894 408.469 140.88 411.627 142.64C412.833 143.311 414.08 143.862 414.396 143.862C414.713 143.862 416.032 144.426 417.328 145.117C418.624 145.807 420.144 146.372 420.706 146.372C421.268 146.372 422.294 146.696 422.987 147.093C424.188 147.781 424.285 147.778 425.105 147.038C426.473 145.802 426.604 144.754 425.534 143.617C425.011 143.061 424.441 142.606 424.267 142.606C424.093 142.606 422.793 141.918 421.377 141.076C419.408 139.905 418.607 139.127 417.964 137.762C417.142 136.017 416.224 135.263 415.48 135.722C415.275 135.848 414.727 135.748 414.261 135.499C413.65 135.173 413.171 135.177 412.54 135.514C411.351 136.149 411.186 135.845 411.937 134.407C412.747 132.856 412.742 131.955 411.918 131.132C410.957 130.174 410.275 130.313 408.556 131.82L407.022 133.164L407.304 131.88C407.55 130.764 407.391 130.425 406.086 129.28C405.26 128.556 404.417 127.964 404.212 127.964C404.007 127.964 403.247 128.463 402.521 129.072C401.213 130.171 401.18 130.175 398.338 129.64C396.03 129.205 395.388 128.911 395.029 128.126C394.436 126.825 392.862 126.481 391.269 127.303C389.647 128.14 388.028 128.141 385.703 127.306C384.695 126.943 382.361 126.204 380.517 125.663C377.273 124.711 373.459 122.892 372.936 122.047C372.796 121.82 374.03 119.905 375.678 117.792C385.969 104.6 391.766 96.2845 392.271 93.9899C392.589 92.5437 391.969 91.6187 391.256 92.475C391 92.7817 389.689 94.5387 388.343 96.3795C385.96 99.6367 382.342 103.889 375.488 111.49C373.644 113.535 371.451 116.039 370.615 117.055L369.094 118.901L367.939 117.994C367.304 117.495 366.543 117.087 366.247 117.087C365.952 117.087 365.113 116.334 364.383 115.414C363.234 113.967 362.831 113.741 361.396 113.741C360.003 113.741 359.407 114.049 357.68 115.661C355.634 117.572 354.744 117.751 354.744 116.251C354.744 115.818 354.555 115.347 354.325 115.205C353.576 114.743 353.882 113.886 354.973 113.39C356.419 112.732 356.42 112.733 356.42 114.159C356.42 114.849 356.602 115.414 356.825 115.414C357.577 115.414 358.189 113.634 357.947 112.149C357.75 110.937 357.893 110.5 358.74 109.716C359.871 108.669 360.107 106.779 359.295 105.265C359.032 104.774 358.4 102.575 357.89 100.376C357.38 98.1779 356.387 95.2441 355.684 93.856C354.098 90.726 348.807 85.528 346.747 85.0766C345.988 84.9101 345.04 84.3734 344.64 83.8831L343.912 82.9924L341.07 83.973C339.507 84.5123 337.451 85.487 336.501 86.1392C334.3 87.6511 330.756 91.4831 328.362 94.9395C323.658 101.732 322.897 103.004 322.312 105.062C320.43 111.67 319.959 113.677 319.96 115.071C319.961 116.654 320.817 117.924 321.883 117.924C322.215 117.924 322.862 118.158 323.32 118.443C323.982 118.856 324.322 118.856 324.984 118.443C326.052 117.777 326.247 117.79 326.247 118.526C326.247 118.922 326.64 119.101 327.4 119.049C328.535 118.971 328.551 119.003 328.455 121.23C328.382 122.92 328.531 123.617 329.043 123.991C329.42 124.266 329.613 124.676 329.473 124.902C329.202 125.341 326.367 126.572 319.965 129.032C317.777 129.873 315.256 130.933 314.362 131.388C312.458 132.358 311.763 131.986 312.392 130.334C312.843 129.15 312.505 128.881 311.646 129.739C310.749 130.635 310.45 129.464 309.927 123C308.435 104.55 305.74 87.7959 302.636 77.6724C302.109 75.9513 302.109 75.6346 302.638 75.1966C304.657 73.5236 304.099 71.2135 301.276 69.5623C297.094 67.115 287.828 64.8145 282.035 64.7848C280.652 64.7777 276.552 65.0982 272.922 65.4964C265.849 66.2729 264.955 66.1403 265.862 64.4485C266.426 63.3968 266.457 61.984 265.922 61.7962C265.703 61.7196 266.293 61.0143 267.233 60.2287C269.23 58.559 270.237 58.8088 270.348 61.0001C270.501 64.0335 272.679 64.0787 276.651 61.1306C278.23 59.9592 280.161 58.3378 280.943 57.5274C282.096 56.333 282.585 56.0984 283.528 56.2866C284.541 56.4887 284.832 56.295 285.786 54.7877C287.424 52.1965 291.464 44.0161 291.464 43.2895C291.464 42.9402 291.117 42.3181 290.693 41.9064C290.103 41.3333 289.964 40.7167 290.101 39.2755C290.419 35.9392 290.247 33.0693 289.643 31.6265C288.246 28.2877 284.657 24.3477 282.349 23.6194C281.831 23.4558 281.407 23.078 281.407 22.7797C281.407 22.4815 280.91 21.741 280.302 21.1344C279.234 20.0689 279.033 20.0316 274.33 20.0371C268.857 20.0434 263.104 21.0428 259.917 22.5409C257.102 23.8633 254.256 26.5557 251.644 30.3639C250.414 32.159 248.293 35.0238 246.932 36.7303C240.977 44.194 237.4 50.3704 237.411 53.1716C237.426 57.0367 241.042 60.4901 244.498 59.9408C245.738 59.7438 246.168 59.8869 247 60.7729C247.895 61.7263 247.964 62.0372 247.627 63.6306C247.276 65.2927 247.131 65.4412 245.574 65.7378C237.731 67.2317 235.448 67.7835 233.785 68.5872C232.315 69.2975 230.737 69.5807 226.989 69.8062C222.368 70.0844 222.067 70.0535 221.336 69.2252C214.937 61.9786 211.453 58.257 207.864 54.8362L203.545 50.7197L205.912 48.815C209.365 46.0355 213.4 43.2723 219.577 39.455C222.644 37.5599 225.259 35.6438 225.538 35.0878C225.812 34.5432 226.519 33.8445 227.11 33.5354C228.153 32.9903 228.184 33.012 228.184 34.2629C228.184 35.8773 229.184 37.8535 230.304 38.4513C230.773 38.7024 232.138 39.0801 233.337 39.2909C234.537 39.5018 236.212 39.8444 237.06 40.0515C239.052 40.5393 240.087 40.0134 241.884 37.6021C244.283 34.3838 245.065 32.3285 244.855 29.7983C244.662 27.4844 243.383 25.4701 242.105 25.4701C241.686 25.4701 241.578 25.1769 241.747 24.5012C242.029 23.3805 241.288 21.8565 237.844 16.4757C236.519 14.4049 234.554 10.9009 233.477 8.68907C230.451 2.47457 226.424 -1.39971 224.939 0.474053ZM253.051 40.4544C250.901 43.3426 249.138 45.331 249.138 44.8658C249.138 44.301 250.476 42.5005 252.436 40.4259C254.332 38.4191 254.557 38.4296 253.051 40.4544ZM193.821 48.8974C193.821 49.1275 193.443 49.3157 192.982 49.3157C192.521 49.3157 192.144 49.1275 192.144 48.8974C192.144 48.6673 192.521 48.479 192.982 48.479C193.443 48.479 193.821 48.6673 193.821 48.8974ZM198.234 50.5499C198.08 50.7988 197.758 50.882 197.518 50.7343C197.237 50.5607 197.28 50.3453 197.64 50.1227C198.313 49.7081 198.619 49.9282 198.234 50.5499ZM242.078 56.3987C242.331 56.7598 242.042 56.5267 241.438 55.8812C240.832 55.2357 240.345 54.2944 240.354 53.7895C240.367 53.0632 240.501 53.1712 240.994 54.307C241.337 55.0964 241.825 56.0377 242.078 56.3987ZM605.768 61.0541C605.768 61.2975 605.956 61.3808 606.187 61.2385C606.417 61.0963 606.606 60.8972 606.606 60.7955C606.606 60.6939 606.417 60.611 606.187 60.611C605.956 60.611 605.768 60.8106 605.768 61.0541ZM650.528 66.6879C650.399 66.8167 650.164 66.5846 650.007 66.1721C649.78 65.576 649.827 65.5278 650.241 65.9378C650.528 66.2218 650.657 66.5595 650.528 66.6879ZM277.216 70.0618C276.359 70.2664 258.98 72.743 258.401 72.743C258.147 72.743 257.939 72.4841 257.939 72.1678C257.939 71.562 260.035 70.9111 261.565 71.042C262.062 71.0843 262.576 70.9445 262.708 70.7316C262.855 70.4948 263.562 70.5007 264.529 70.7467C265.648 71.0316 267.336 70.9671 270.301 70.527C273.965 69.9836 278.949 69.6481 277.216 70.0618ZM197.037 79.1228C200.374 81.9114 208.747 92.0157 205.695 89.5709C202.72 87.188 192.834 76.5081 193.604 76.5081C193.771 76.5081 195.316 77.6849 197.037 79.1228ZM330.559 84.3521C328.377 86.5843 322.711 94.9537 321.996 96.9994C321.612 98.0993 321.649 98.4532 322.206 99.0092C322.828 99.6296 322.982 99.6099 324.128 98.7636C324.814 98.2578 325.524 97.8378 325.707 97.8303C325.999 97.8186 328.25 94.1806 330.617 89.8951C331.062 89.0898 332.069 87.3403 332.854 86.0079C334.008 84.0513 334.185 83.4673 333.776 82.9749C333.008 82.0512 332.666 82.1976 330.559 84.3521ZM617.213 91.3936C620.102 99.1158 620.435 100.514 620.435 104.894C620.435 109.911 619.714 111.71 617.323 112.66C616.417 113.019 615.637 113.268 615.589 113.213C615.199 112.769 609.54 99.2393 609.54 98.7506C609.54 97.4969 614.722 85.2528 615.023 85.7962C615.188 86.0949 616.173 88.6137 617.213 91.3936ZM313.243 112.929C312.594 114.138 313.924 119.912 315.15 121.215C316.001 122.119 316.672 120.402 316.524 117.699C316.371 114.894 315.638 114.511 315.351 117.087C315.099 119.36 314.646 118.576 314.245 115.169C314.015 113.213 314.076 112.904 314.69 112.904C315.081 112.904 315.284 112.716 315.142 112.486C314.71 111.788 313.732 112.016 313.243 112.929ZM379.727 116.67C378.172 118.389 377.527 120.268 378.876 119.15C379.872 118.325 382.082 114.996 381.633 114.996C381.419 114.996 380.561 115.749 379.727 116.67ZM323.418 122.409C322.8 122.63 322.717 124.04 323.302 124.401C323.525 124.539 323.831 124.165 323.98 123.569C324.285 122.357 324.179 122.138 323.418 122.409ZM538.638 122.812C538.94 122.933 539.302 122.918 539.441 122.779C539.58 122.64 539.333 122.541 538.891 122.559C538.403 122.579 538.304 122.678 538.638 122.812ZM325.894 123.781C325.894 124.356 325.989 124.592 326.106 124.304C326.222 124.017 326.222 123.546 326.106 123.258C325.989 122.971 325.894 123.206 325.894 123.781ZM510.848 130.697C510.157 131.038 509.025 131.798 508.334 132.386L507.077 133.454L509.172 132.306C511.871 130.827 513.024 130.054 512.513 130.066C512.289 130.071 511.54 130.355 510.848 130.697ZM375.773 132.52C380.865 134.269 383.66 136.312 383.66 138.284C383.66 140.173 384.047 140.941 385.22 141.387C386.547 141.89 389.257 140.716 390.967 138.896C393.235 136.483 393.349 137.191 391.498 142.188C389.808 146.749 388.716 148.948 388.276 148.676C387.805 148.385 385.294 150.695 384.559 152.096C384.295 152.599 384.079 153.67 384.079 154.477C384.079 157.527 382.893 156.617 380.79 151.955C379.317 148.688 375.87 142.634 374.477 140.866C373.972 140.225 373.711 139.463 373.862 139.072C374.009 138.688 373.799 138.034 373.378 137.571C372.68 136.8 372.678 136.702 373.34 135.972C373.901 135.353 373.957 134.962 373.614 134.062C373.192 132.954 373.042 131.73 373.327 131.73C373.406 131.73 374.507 132.086 375.773 132.52ZM501.074 135.312C497.69 137.352 494.295 139.988 494.295 140.575C494.295 140.783 494.813 140.623 495.447 140.221C497.11 139.165 504.353 133.748 504.353 133.561C504.353 133.332 504.417 133.298 501.074 135.312ZM469.234 134.323C468.958 134.599 468.732 135.503 468.732 136.331C468.732 137.16 468.52 138.048 468.262 138.306C467.595 138.972 467.953 146.9 468.691 147.787C469 148.159 469.39 148.463 469.557 148.463C469.724 148.463 469.978 146.346 470.122 143.757C470.265 141.169 470.509 137.874 470.664 136.436C470.894 134.307 470.834 133.821 470.342 133.821C470.009 133.821 469.511 134.047 469.234 134.323ZM483.168 140.718C482.816 143.067 483.189 143.564 484.267 142.182C485.226 140.953 485.166 139.115 484.162 138.925C483.616 138.821 483.393 139.224 483.168 140.718ZM304.063 141.247C303.269 142.626 301.959 144.071 301.95 143.58C301.941 143.103 303.923 140.515 304.298 140.515C304.401 140.515 304.295 140.844 304.063 141.247ZM497.438 147.222C496.922 147.452 498.288 147.499 501 147.345C503.42 147.208 505.479 147.027 505.575 146.943C505.957 146.608 498.22 146.874 497.438 147.222ZM495.971 148.882C496.731 149.372 498.39 149.372 499.533 148.882C500.129 148.626 499.645 148.516 497.857 148.499C496.087 148.483 495.529 148.596 495.971 148.882ZM654.212 160.386C659.474 170.619 662.121 174.656 666.349 178.898C668.757 181.314 669.627 181.931 670.625 181.931C671.314 181.931 672.123 181.636 672.422 181.277C672.801 180.821 673.295 180.712 674.046 180.917C674.639 181.08 675.538 181.189 676.045 181.16C676.973 181.107 678.132 182.319 681.248 186.6C682.029 187.673 683.44 189.555 684.384 190.783C686.328 193.313 695.914 207.552 695.759 207.682C695.704 207.729 689.341 210.128 681.62 213.013C673.898 215.898 662.236 220.345 655.705 222.895C649.173 225.444 643.685 227.53 643.51 227.53C643.335 227.53 642.198 223.812 640.983 219.268C638.549 210.157 635.965 201.835 634.427 198.154C632.829 194.332 632.894 194.207 636.604 193.969C639.302 193.796 639.944 193.604 640.854 192.695L641.927 191.625L641.843 183.005C641.786 177.042 641.981 172.511 642.476 168.305L643.191 162.224L646.585 157.657C650.598 152.26 649.905 152.012 654.212 160.386ZM462.236 155.157C462.085 155.401 462.511 155.575 463.259 155.575C463.964 155.575 464.541 155.387 464.541 155.157C464.541 154.927 464.081 154.738 463.518 154.738C462.955 154.738 462.378 154.927 462.236 155.157ZM479.824 156.694C478.92 157.596 479.175 159.208 480.737 162.481C482.03 165.189 483.429 166.271 484.735 165.574C485.797 165.005 485.688 163.442 484.373 160.438C483.172 157.694 481.901 155.993 481.051 155.993C480.762 155.993 480.21 156.309 479.824 156.694ZM416.157 161.492C415.021 162.384 413.442 165.223 413.423 166.407C413.415 166.936 416.159 164.114 417.549 162.164C418.465 160.878 417.521 160.421 416.157 161.492ZM419.071 164.047C416.343 166.596 415.813 170.217 418.168 170.217C418.724 170.217 419.374 169.982 419.613 169.694C420.313 168.852 422.232 163.471 421.978 163.062C421.537 162.349 420.52 162.693 419.071 164.047ZM114.119 164.334C114.223 164.648 114.066 164.805 113.752 164.701C113.449 164.6 113.119 164.27 113.019 163.968C112.914 163.655 113.071 163.498 113.385 163.602C113.687 163.703 114.018 164.032 114.119 164.334ZM316.2 167.393C316.205 168.141 316.69 169.883 317.278 171.263C319.025 175.368 321.628 182.909 321.633 183.878C321.635 184.374 322.298 185.569 323.105 186.533C324.237 187.886 325.013 189.687 326.504 194.417C327.566 197.789 329.057 201.677 329.817 203.057C330.577 204.438 331.327 206.32 331.484 207.241C331.936 209.9 332.132 210.378 332.771 210.378C333.216 210.378 333.387 211.002 333.43 212.784C333.462 214.107 333.603 220.649 333.744 227.321L334 239.453L335.113 239.44C336.048 239.428 336.305 239.687 336.714 241.049C337.3 243.001 337.169 243.194 335.714 242.532C334.688 242.065 334.492 242.136 333.355 243.379C332.672 244.124 332.114 244.915 332.114 245.137C332.114 245.359 332.752 246.806 333.532 248.353C334.313 249.901 335.46 252.39 336.082 253.886C336.703 255.382 337.782 257.324 338.478 258.203C339.768 259.832 345.238 270.794 348.535 278.359C349.743 281.129 350.663 282.677 351.258 282.94C351.973 283.256 352.296 284.031 352.829 286.705C354.719 296.189 355.189 298.312 356.142 301.677L357.176 305.332L355.436 305.778C352.984 306.407 352.67 306.584 354.115 306.522C355.877 306.448 358.55 307.04 358.297 307.448C358.182 307.635 357.146 308.101 355.996 308.482C354.847 308.863 353.906 309.323 353.906 309.503C353.906 309.975 349.113 312.048 342.801 314.307C339.804 315.379 333.958 317.546 329.809 319.122C320.507 322.656 318.085 323.385 316.99 322.981C316.174 322.679 316.17 322.642 316.9 321.982C317.318 321.605 319.403 320.437 321.534 319.385C323.665 318.334 325.409 317.402 325.409 317.313C325.409 317.224 324.112 317.492 322.525 317.907C317.45 319.238 315.813 319.361 315.134 318.466C314.327 317.403 314.369 317.097 315.287 317.336C315.799 317.47 316.44 317.089 317.181 316.21C318.214 314.985 319.542 314.722 319.542 315.743C319.542 316.547 320.888 316.599 321.975 315.837C322.815 315.247 324.176 314.976 327.295 314.779C331.9 314.487 334.494 314.011 335.174 313.332C335.598 312.909 335.489 312.519 334.223 309.944C334.053 309.599 333.509 309.256 333.014 309.183C332.339 309.083 332.114 308.756 332.114 307.875C332.114 306.084 331.307 305.707 327.644 305.787C325.839 305.827 323.279 305.72 321.957 305.549C319.973 305.294 319.349 305.374 318.395 306.008C317.758 306.43 316.891 306.722 316.468 306.655C313.818 306.235 311.759 312.507 313.466 315.802L314.095 317.016L312.523 317.452C311.658 317.692 310.762 317.888 310.532 317.889C309.771 317.891 300.953 297.489 295.165 282.333C293.539 278.077 291.461 273.088 290.548 271.247C288.168 266.454 286.109 255.195 285.573 244.055C285.178 235.823 284.565 230.516 283.938 229.89C282.947 228.901 282.663 230.348 282.65 236.445C282.638 242.575 282.323 244.264 281.196 244.264C281.016 244.264 280.987 238.475 281.13 231.4C281.375 219.369 282.001 210.128 283.105 202.221C283.363 200.38 283.712 196.05 283.882 192.599C284.121 187.72 284.219 187.022 284.322 189.461L284.455 192.599L284.764 189.879C284.942 188.316 284.902 186.715 284.67 186.114C284.445 185.532 284.39 183.782 284.545 182.168C284.76 179.939 285.109 178.855 286.049 177.491C286.722 176.513 287.274 175.256 287.274 174.696C287.274 174.137 287.818 172.996 288.482 172.161L289.69 170.643L290.164 172.522C290.425 173.555 290.822 174.401 291.046 174.401C291.27 174.401 291.786 175.542 292.192 176.937C292.843 179.171 293.042 179.452 293.861 179.298C294.373 179.202 295.764 179.277 296.953 179.464C300.158 179.97 301.47 179.22 307.179 173.614C312.163 168.72 315.242 166.034 315.866 166.034C316.044 166.034 316.194 166.645 316.2 167.393ZM421.01 169.641C420.734 170.246 420.421 171.612 420.315 172.676C420.144 174.399 420.211 174.292 420.936 171.694C421.803 168.587 421.829 167.846 421.01 169.641ZM293.427 169.878C293.293 170.211 293.194 170.112 293.174 169.624C293.156 169.183 293.255 168.937 293.394 169.076C293.533 169.214 293.548 169.575 293.427 169.878ZM404.513 169.202C404.381 169.334 406.017 171.17 408.15 173.281C410.282 175.393 412.581 178.091 413.259 179.279C414.278 181.066 414.614 181.369 415.209 181.036C415.605 180.815 415.928 180.359 415.928 180.022C415.928 178.741 409.312 171.264 406.944 169.869C405.332 168.92 404.911 168.804 404.513 169.202ZM120.629 174.03C121.517 176.773 121.55 180.802 120.693 181.512C120.01 182.078 120.041 182.197 119.83 178.166C119.776 177.13 119.594 175.295 119.425 174.087C119.028 171.237 119.715 171.204 120.629 174.03ZM406.29 174.819C406.782 175.509 407.279 176.074 407.395 176.074C407.51 176.074 407.201 175.509 406.709 174.819C406.216 174.129 405.719 173.564 405.604 173.564C405.489 173.564 405.797 174.129 406.29 174.819ZM536.287 197.2C539.505 206.634 543.144 217.342 544.373 220.997L546.608 227.641L545.753 229.277C545.283 230.177 544.831 230.845 544.748 230.762C544.664 230.679 543.2 226.764 541.493 222.063C539.786 217.362 537.331 210.712 536.039 207.285C534.745 203.858 533.688 200.697 533.688 200.261C533.688 199.825 533.288 198.687 532.8 197.732C531.83 195.834 526.673 182.358 526.476 181.208C526.391 180.712 526.738 180.406 527.611 180.209C530.414 179.573 529.991 178.744 536.287 197.2ZM317.635 180.71C317.457 180.998 317.687 181.495 318.179 181.884C319.172 182.669 320.38 184.911 320.38 185.968C320.38 186.47 320.516 186.565 320.812 186.269C321.43 185.652 319.546 180.519 318.637 180.344C318.256 180.271 317.805 180.436 317.635 180.71ZM379.561 182.307C376.199 182.645 375.014 183.368 375.47 184.803C375.81 185.872 377.16 186.246 383.87 187.132C389.212 187.837 394.362 187.561 395.642 186.501C396.787 185.552 396.188 183.894 394.383 183.014C392.53 182.112 385.061 181.755 379.561 182.307ZM433.125 187.166C433.248 188.083 433.515 189.101 433.718 189.428C433.992 189.87 433.916 189.956 433.419 189.766C433.053 189.626 432.525 189.784 432.247 190.119C431.445 191.084 430.536 190.091 431.032 188.789C431.247 188.225 431.466 187.198 431.518 186.507C431.664 184.605 432.846 185.09 433.125 187.166ZM283.39 193.749C283.302 194.727 283.229 193.927 283.229 191.971C283.229 190.015 283.302 189.215 283.39 190.193C283.478 191.171 283.478 192.771 283.39 193.749ZM323.118 193.325C323.245 194.185 323.63 195.503 323.973 196.254L324.597 197.619L324.321 196.17C324.17 195.373 323.785 194.055 323.466 193.241L322.886 191.762L323.118 193.325ZM395.28 195.571C395.141 195.709 394.78 195.724 394.477 195.604C394.143 195.47 394.242 195.371 394.731 195.351C395.172 195.333 395.42 195.432 395.28 195.571ZM324.604 198.49C324.624 198.978 324.723 199.077 324.857 198.743C324.978 198.441 324.963 198.08 324.824 197.941C324.685 197.802 324.586 198.049 324.604 198.49ZM327.117 203.685C327.111 204.03 327.489 205.724 327.958 207.45C328.427 209.176 328.873 211.166 328.948 211.874C329.123 213.535 330.356 215.916 330.875 215.597C331.486 215.219 331.294 212.176 330.452 208.914C330.036 207.303 329.674 206.315 329.648 206.718C329.557 208.095 328.82 207.451 327.975 205.254C327.509 204.045 327.123 203.34 327.117 203.685ZM486.404 204.955C487.311 203.837 487.221 203.786 488.358 206.039C488.838 206.988 489.494 207.866 489.817 207.989C490.139 208.113 490.603 209.003 490.848 209.967C491.221 211.43 491.164 212.024 490.505 213.559C489.621 215.617 488.47 215.988 487.456 214.543C486.951 213.822 486.817 213.789 486.607 214.334C486.108 215.632 485.571 214.907 484.528 211.529C482.845 206.076 482.486 204.483 482.772 203.745C482.994 203.176 483.262 203.304 484.328 204.492L485.617 205.926L486.404 204.955ZM419.771 204.521C419.765 205.097 419.921 205.944 420.119 206.404L420.479 207.241L420.467 206.404C420.46 205.944 420.304 205.097 420.119 204.521L419.784 203.476L419.771 204.521ZM130.674 206.336C131.475 208.874 131.563 209.96 130.968 209.96C130.558 209.96 130.322 209.199 129.994 206.822C129.899 206.132 129.68 205.238 129.507 204.835C129.335 204.433 129.368 204.103 129.581 204.103C129.794 204.103 130.286 205.108 130.674 206.336ZM532.011 204.905C532.011 205.062 531.811 205.391 531.566 205.635C531.146 206.054 536.446 219.916 541.274 231.028C542.173 233.095 542.907 235.051 542.907 235.374C542.907 235.697 542.087 238.065 541.085 240.635C539.091 245.749 538.152 249.333 537.421 254.618C537.158 256.516 536.891 258.069 536.826 258.069C536.761 258.069 536.076 257.081 535.303 255.873C534.529 254.665 532.524 252.186 530.846 250.363C528.245 247.538 527.246 245.965 524.079 239.695C522.035 235.65 519.611 230.459 518.693 228.158C516.186 221.878 516.048 221.629 515.214 221.894C513.364 222.48 513.963 220.559 516.505 217.753C517.629 216.512 517.752 216.246 517.029 216.617C514.289 218.024 517.593 214.264 525.638 206.819C527.068 205.495 527.511 205.276 527.803 205.749C528.102 206.231 528.347 206.145 529.108 205.293C529.755 204.568 530.348 204.302 531.028 204.431C531.569 204.534 532.011 204.748 532.011 204.905ZM483.412 205.02C483.405 205.409 483.6 205.851 483.846 206.003C484.585 206.458 484.688 205.978 484.036 205.118C483.5 204.411 483.424 204.398 483.412 205.02ZM715.775 207.797C715.497 208.075 713.888 206.591 713.888 206.057C713.888 205.822 714.359 206.072 714.934 206.611C715.51 207.151 715.888 207.685 715.775 207.797ZM485.105 210.483C485.168 211.602 485.766 212.628 486.07 212.137C486.236 211.87 486.167 211.27 485.918 210.805C485.404 209.847 485.061 209.711 485.105 210.483ZM698.984 211.589C699.209 211.953 693.388 213.48 693.052 213.144C692.87 212.963 697.423 211.303 698.253 211.248C698.528 211.23 698.856 211.383 698.984 211.589ZM488.599 213.1C488.45 213.695 488.432 214.286 488.559 214.414C488.969 214.823 489.685 214.119 489.685 213.307C489.685 212.057 488.899 211.908 488.599 213.1ZM615.849 213.487C615.48 213.931 615.466 214.5 615.796 215.684C616.408 217.884 616.384 217.954 615.199 217.415C614.335 217.022 614.007 217.071 613.313 217.698C612.31 218.604 612.257 219.703 613.102 222.092C613.447 223.07 613.73 223.936 613.73 224.017C613.73 224.097 613.201 224.057 612.554 223.928C610.094 223.436 609.898 225.598 612.238 227.435C612.945 227.991 613.195 228.511 613.039 229.106C612.877 229.725 613.124 230.173 613.911 230.687C614.888 231.326 615.284 231.347 617.524 230.872C618.909 230.579 620.139 230.181 620.258 229.989C620.377 229.796 621.06 230.303 621.774 231.115C622.632 232.091 623.373 232.55 623.955 232.467C625.38 232.264 625.22 230.807 623.528 228.595C622.529 227.289 621.551 225.217 620.789 222.791C619.63 219.1 619.481 217.801 620.416 219.546C621.049 220.727 621.693 220.647 621.693 219.386C621.693 218.766 620.935 217.473 619.792 216.144C618.747 214.929 617.702 213.699 617.47 213.411C616.922 212.729 616.462 212.75 615.849 213.487ZM146.902 220.386C146.665 220.828 145.764 221.772 144.899 222.483C142.629 224.351 142.569 223.15 144.835 221.195C146.874 219.435 147.555 219.169 146.902 220.386ZM368.41 226.185C369.127 227.048 370.11 228.528 370.593 229.474C372.636 233.472 380.492 242.625 387.057 248.657C390.5 251.82 391.224 253.126 390.176 254.282C389.77 254.73 389.527 255.791 389.527 257.121C389.527 261.324 390.833 274.692 391.542 277.748C392.186 280.523 392.382 280.883 393.307 280.998C394.074 281.093 394.832 281.887 396.198 284.024C397.216 285.617 399.714 288.666 401.748 290.798C404.917 294.12 405.345 294.734 404.742 295.093C404.355 295.323 403.628 295.935 403.126 296.453C402.623 296.97 402.013 297.394 401.769 297.394C401.525 297.394 400.753 297.874 400.053 298.462C398.612 299.673 383.267 304.924 381.171 304.924C379.254 304.924 379.618 304.166 382.088 303.013C383.793 302.217 383.991 302.039 382.966 302.224C380.987 302.582 380.862 301.696 382.81 301.113C383.738 300.836 384.498 300.577 384.498 300.538C384.498 300.499 383.543 297.941 382.375 294.852C381.207 291.763 379.992 288.012 379.674 286.517C379.357 285.021 378.248 281.444 377.21 278.568C373.109 267.203 370.86 257.736 368.567 242.172C366.607 228.877 366.175 224.595 366.792 224.609C366.965 224.614 367.693 225.323 368.41 226.185ZM553.803 233.885C553.803 234.435 552.85 234.091 552.642 233.465C552.54 233.16 552.731 233.066 553.139 233.222C553.504 233.363 553.803 233.66 553.803 233.885ZM618.969 236.26C611.348 238.661 611.118 238.75 612.473 238.792C614.126 238.842 620.938 236.892 623.856 235.533C627.641 233.77 626.19 233.986 618.969 236.26ZM549.593 236.876C550.049 238.501 550.015 238.898 549.293 240.302L548.477 241.89L547.76 240.017C547.088 238.261 547.087 238.033 547.743 236.395C548.129 235.434 548.587 234.736 548.761 234.843C548.935 234.951 549.31 235.866 549.593 236.876ZM612.473 236.482C605.981 238.16 602.043 239.485 600.949 240.36L600.11 241.03L600.949 240.735C602.567 240.164 610.634 237.879 615.13 236.717C617.628 236.072 619.781 235.435 619.914 235.302C620.491 234.726 617.329 235.228 612.473 236.482ZM557.202 239.791C559.59 241.413 560.911 242.835 561.407 244.315C561.936 245.891 563.329 247.611 564.076 247.611C564.538 247.611 565.537 249.319 565.537 250.11C565.537 250.313 565.207 250.564 564.804 250.669C564.352 250.787 564.514 250.879 565.223 250.909C565.857 250.936 566.375 251.134 566.375 251.35C566.375 251.928 562.852 252.355 560.275 252.09C558.704 251.928 557.245 252.098 555.395 252.66C553.943 253.101 552.726 253.463 552.689 253.464C552.653 253.466 552.234 252.319 551.759 250.914C550.907 248.395 550.906 248.338 551.686 246.835C552.532 245.205 552.623 245.284 553.253 248.198C553.471 249.205 554.036 250.151 554.728 250.667C555.791 251.46 555.907 251.467 556.922 250.802C558.18 249.98 558.311 248.6 557.313 246.673C556.275 244.67 554.749 239.938 554.951 239.349C555.202 238.614 555.579 238.688 557.202 239.791ZM608.911 240.941C606.606 241.618 603.023 242.445 600.949 242.779C598.874 243.113 596.328 243.659 595.291 243.993L593.405 244.6L594.872 244.636C596.938 244.689 606.969 243.581 611.216 242.831C615.712 242.038 618.13 241.208 618.13 240.457C618.13 239.344 613.528 239.586 608.911 240.941ZM590.891 242.469C586.512 243.729 581.914 245.046 580.673 245.395C579.078 245.843 578.587 246.136 578.997 246.395C579.767 246.882 581.462 246.875 581.462 246.386C581.462 246.172 582.546 245.781 583.871 245.517C588.808 244.534 598.033 241.683 598.841 240.891C599.905 239.849 600.19 239.792 590.891 242.469ZM546.665 243.814C547.087 244.829 547.064 245.421 546.54 247.065C545.612 249.979 545.311 251.721 545.36 253.889C545.392 255.352 545.206 255.948 544.574 256.403C544.118 256.731 543.745 257.305 543.745 257.679C543.745 258.411 541.033 261.416 540.373 261.416C539.551 261.416 540.027 260.677 541.725 259.315C543.845 257.614 543.132 257.115 540.791 258.661C538.688 260.05 538.628 259.702 540.707 258.177C542.209 257.075 542.283 256.906 542.382 254.371C542.534 250.452 544.994 241.859 545.818 242.368C546.001 242.48 546.383 243.131 546.665 243.814ZM337.798 247.986C337.292 248.804 336.876 248.483 336.39 246.903L335.915 245.358L337 246.441C337.596 247.036 337.956 247.732 337.798 247.986ZM550.63 253.935C550.36 254.37 548.774 254.676 548.774 254.292C548.774 254.099 548.977 253.41 549.225 252.763L549.676 251.585L550.236 252.626C550.544 253.198 550.721 253.787 550.63 253.935ZM412.576 254.395C412.576 254.586 413.057 254.926 413.646 255.15C414.319 255.405 415.019 256.237 415.529 257.388C416.081 258.635 416.746 259.388 417.608 259.744C418.351 260.051 420.777 262.49 423.476 265.642C429.36 272.513 431.56 274.259 437.301 276.61C437.647 276.752 437.175 276.763 436.253 276.635C431.967 276.041 428.136 273.138 422.217 265.999C420.128 263.479 418.224 261.416 417.987 261.416C416.694 261.416 422.156 267.516 435.27 280.72L439.316 284.793L435.733 286.088C433.762 286.8 430.904 287.797 429.382 288.304C424.631 289.886 428.191 289.68 434.508 288.007C437.602 287.188 440.357 286.517 440.631 286.517C440.926 286.517 441.074 286.983 440.996 287.664C440.88 288.663 440.428 288.999 437.511 290.249C435.667 291.038 433.564 291.698 432.838 291.716C432.111 291.732 431.587 291.86 431.672 291.998C431.865 292.313 429.635 292.977 425.567 293.817C419.84 294.998 416.877 294.374 421.691 293C430.306 290.543 433.505 289.346 428.76 290.356C427.256 290.676 426.481 290.658 425.785 290.287C425.025 289.88 424.395 289.926 422.487 290.526C421.19 290.934 420.052 291.188 419.957 291.089C419.269 290.374 414.037 278.849 412.943 275.64C411.597 271.687 411.589 271.614 411.444 262.044C411.313 253.364 411.361 252.501 411.937 253.234C412.288 253.681 412.576 254.203 412.576 254.395ZM340.929 255.793C341.662 257.073 342.16 258.221 342.035 258.346C341.91 258.471 341.227 257.424 340.517 256.02C338.904 252.831 339.153 252.694 340.929 255.793ZM553.489 256.255C553.201 256.371 552.729 256.371 552.441 256.255C552.153 256.139 552.389 256.044 552.965 256.044C553.541 256.044 553.777 256.139 553.489 256.255ZM286.03 261.595C287.3 268.167 286.538 270.515 284.842 265.256C283.939 262.46 283.676 259.235 284.193 257.31C284.625 255.695 285.105 256.814 286.03 261.595ZM230.895 266.675C231.637 267.161 232.109 267.221 232.699 266.906C233.428 266.516 233.723 267.032 236.076 272.807C237.494 276.286 238.608 279.173 238.553 279.22C238.497 279.268 236.437 276.317 233.975 272.662C231.513 269.008 229.587 266.018 229.694 266.018C229.802 266.018 230.342 266.314 230.895 266.675ZM274.695 287.04C275.434 288.363 275.94 289.445 275.819 289.445C275.54 289.445 272.606 284.64 272.606 284.182C272.606 283.593 273.302 284.545 274.695 287.04ZM294.168 288.632C294.806 290.256 295.232 291.681 295.114 291.798C294.922 291.99 293.739 289.15 292.956 286.621C292.335 284.613 293.064 285.823 294.168 288.632ZM267.801 294.779C275.324 308.547 282.096 320.36 285.017 324.81C285.654 325.781 285.647 325.841 284.898 325.841C283.468 325.841 274.539 310.683 267.773 296.766C263.585 288.151 262.846 286.517 263.14 286.517C263.221 286.517 265.318 290.235 267.801 294.779ZM256.085 293.733C258.892 298.146 264.7 307.625 265.377 308.898C265.5 309.128 265.317 309.034 264.971 308.689C264.34 308.06 257.043 296.499 254.805 292.583C254.147 291.432 253.336 290.067 253.002 289.55C252.667 289.032 252.491 288.609 252.61 288.609C252.729 288.609 254.293 290.915 256.085 293.733ZM131.444 291.473C132.789 293.127 133.741 294.904 134.511 297.201C135.876 301.268 136.948 302.566 138.713 302.29C139.839 302.113 140.157 302.34 141.768 304.468C144.96 308.685 146.698 310.362 147.877 310.362C148.773 310.362 149.158 310.751 150.053 312.559C150.652 313.767 151.612 315.15 152.187 315.632C154.156 317.284 157.117 330.84 159.258 348.013C159.846 352.73 160.427 356.919 160.549 357.322C161.086 359.097 163.779 359.214 164.501 357.494C164.789 356.808 164.858 357.081 164.788 358.626L164.695 360.663L155.895 363.3C151.054 364.75 144.745 366.697 141.875 367.627C139.004 368.556 136.6 369.262 136.532 369.194C136.062 368.725 135.705 364.858 136.069 364.18C136.604 363.181 135.892 359.332 134.514 355.775C131.712 348.54 128.487 335.326 129.232 334.134C129.885 333.092 129.819 329.634 129.065 325.423C128.716 323.467 128.24 317.335 128.009 311.795C127.662 303.495 127.7 300.662 128.225 295.689C128.576 292.37 128.863 289.513 128.864 289.341C128.866 288.604 129.613 289.222 131.444 291.473ZM433.949 290.7C432.911 291.135 432.346 291.496 432.691 291.503C433.037 291.509 434.074 291.159 434.996 290.723C437.174 289.694 436.391 289.677 433.949 290.7ZM89.8908 292.309C89.8908 292.503 89.5137 293.003 89.0527 293.42C88.3872 294.021 88.2146 294.051 88.2146 293.568C88.2146 292.912 89.01 291.955 89.5556 291.955C89.74 291.955 89.8908 292.114 89.8908 292.309ZM396.232 297.394C395.886 297.617 395.792 297.799 396.023 297.799C396.253 297.799 396.725 297.617 397.07 297.394C397.416 297.171 397.51 296.988 397.28 296.988C397.049 296.988 396.578 297.171 396.232 297.394ZM284.297 309.317C284.297 309.547 283.279 307.758 282.035 305.342C280.791 302.926 279.773 300.762 279.773 300.531C279.773 300.301 280.791 302.09 282.035 304.506C283.279 306.922 284.297 309.087 284.297 309.317ZM226.613 301.459C225.803 301.749 225.988 302.648 227.137 304.011C228.4 305.509 228.575 307.196 227.429 306.833C226.233 306.454 225.081 307.539 225.388 308.756C225.568 309.474 226.283 310.088 227.72 310.759C229.663 311.668 229.764 311.791 229.332 312.736C228.939 313.598 229.121 314.222 230.588 317.039C231.532 318.852 232.195 320.444 232.06 320.578C231.926 320.711 231.123 320.821 230.275 320.821C227.659 320.821 226.553 323.072 228.625 324.18C229.044 324.403 229.78 324.586 230.26 324.586C230.972 324.586 231.087 324.772 230.883 325.585C230.458 327.275 231.955 327.933 236.226 327.933C240.753 327.933 248.554 326.879 251.167 325.914C252.848 325.293 253.137 325.015 253.246 323.909C253.362 322.723 253.086 322.425 249.579 319.953C247.492 318.484 245.785 317.156 245.785 317.004C245.785 316.852 246.068 316.619 246.414 316.486C247.624 316.023 247.021 315.023 244.49 313.298C243.086 312.342 240.116 310.132 237.89 308.389C235.664 306.645 232.87 304.77 231.683 304.223C230.496 303.675 229.286 302.94 228.994 302.589C228.272 301.72 227.245 301.233 226.613 301.459ZM349.637 308.557C349.939 308.677 350.301 308.662 350.44 308.523C350.579 308.385 350.332 308.286 349.89 308.304C349.402 308.324 349.302 308.423 349.637 308.557ZM289.94 315.839C291.927 319.656 293.43 322.903 293.278 323.055C292.629 323.702 291.916 323.232 291.461 321.858C291.193 321.047 289.94 317.988 288.675 315.06C284.9 306.316 285.018 306.388 289.94 315.839ZM332.646 310.637C332.362 310.752 331.797 310.759 331.389 310.652C330.981 310.546 331.213 310.452 331.905 310.444C332.596 310.436 332.93 310.522 332.646 310.637ZM315.629 312.559C315.513 312.847 315.418 312.611 315.418 312.036C315.418 311.461 315.513 311.226 315.629 311.513C315.745 311.801 315.745 312.271 315.629 312.559ZM341.334 313.007C339.142 313.912 336.65 315.259 337.981 314.82C339.085 314.456 344.051 312.377 344.232 312.203C344.656 311.797 343.463 312.128 341.334 313.007ZM335.467 314.415C333.636 315.06 322.208 320.129 321.87 320.446C321.052 321.212 332.422 317.128 334.733 315.824C336.058 315.077 337.143 314.39 337.143 314.297C337.143 314.074 336.257 314.137 335.467 314.415ZM237.614 315.801C238.709 316.525 238.758 316.633 237.993 316.635C237.51 316.636 236.773 316.261 236.356 315.801C235.387 314.732 235.996 314.732 237.614 315.801ZM189.63 329.808C189.054 330.141 187.801 330.782 186.847 331.231C184.915 332.14 184.513 332.613 184.337 334.18C184.27 334.77 184.093 336.12 183.942 337.178C183.721 338.731 183.798 339.153 184.344 339.361C185.37 339.754 186.148 339.296 186.696 337.975C187.17 336.832 187.302 336.783 189.878 336.822C192.153 336.857 192.725 336.713 193.611 335.881C194.728 334.834 194.97 333.431 194.172 332.635C193.904 332.367 193.631 331.641 193.565 331.02C193.367 329.169 191.647 328.639 189.63 329.808ZM192.144 333.839C192.144 334.042 191.461 334.208 190.626 334.208C189.394 334.208 189.197 334.101 189.581 333.639C190.081 333.038 192.144 333.198 192.144 333.839ZM122.578 335.697C122.578 336.029 122.39 336.3 122.159 336.3C121.929 336.3 121.74 335.912 121.74 335.438C121.74 334.965 121.929 334.693 122.159 334.836C122.39 334.978 122.578 335.365 122.578 335.697ZM200.735 343.99C198.308 345.044 181.16 350.575 180.956 350.37C180.57 349.985 183.949 348.53 189.211 346.815C197.21 344.208 204.155 342.506 200.735 343.99ZM122.296 372.842C122.336 373.038 120.955 373.629 119.226 374.156C117.497 374.683 114.805 375.599 113.242 376.192C111.68 376.784 107.937 377.947 104.925 378.776C99.9226 380.153 99.3866 380.226 98.7228 379.627C97.7656 378.762 96.5708 378.799 92.9262 379.808C89.2606 380.822 89.4718 380.818 89.4718 379.859C89.4718 379.427 89.1897 378.84 88.8444 378.554C87.7976 377.687 86.6451 378.056 70.6135 384.395C65.9673 386.232 61.6722 387.541 55.527 388.992C50.8019 390.108 46.8715 390.959 46.7923 390.884C46.4465 390.553 49.8439 389.199 57.7393 386.52C73.5512 381.155 80.5552 378.61 89.4718 374.993C94.4206 372.985 109.768 366.244 114.606 363.952L117.321 362.666L119.772 367.576C121.12 370.277 122.257 372.646 122.296 372.842ZM68.2877 388.96C67.7563 389.449 63.0066 391.179 62.7895 390.962C62.6956 390.868 63.8988 390.307 65.4636 389.715C68.6967 388.492 68.835 388.456 68.2877 388.96ZM41.6628 395.458C41.323 395.793 26.855 401.108 26.7012 400.954C26.3131 400.567 33.9004 397.28 37.2974 396.364C41.1528 395.325 41.97 395.155 41.6628 395.458Z" fill="#04064D"/>
</svg>
