<svg width="280" height="105" viewBox="0 0 280 105" fill="none" xmlns="http://www.w3.org/2000/svg">
<path d="M16.7222 68.0142L41.5046 67.988L41.4915 43.1532C36.3362 53.0583 26.6665 59.5091 16.7352 61.969C16.7614 63.8401 16.7222 68.0142 16.7222 68.0142Z" fill="white"/>
<path d="M24.6384 55.505C33.994 50.7291 38.4951 41.9754 38.4951 41.9754C38.4951 41.9754 38.469 39.1099 38.469 39.0444C33.3136 37.2126 28.6424 34.5302 24.6515 30.5132C24.6646 37.3303 24.6384 55.505 24.6384 55.505Z" fill="white"/>
<path d="M25.9731 17.9258C25.9731 17.9258 25.973 25.528 25.96 27.4122C28.4199 29.7282 29.6498 30.8011 32.2014 32.4629L32.2276 22.283C29.3097 20.6474 28.1844 19.7838 25.9731 17.9258Z" fill="white"/>
<path d="M60.0848 26.5879C60.0848 26.8757 60.0586 27.1113 60.0325 27.3468C59.9278 27.9618 59.6137 28.3936 59.0904 28.616C58.3969 28.917 57.651 28.9955 56.6304 28.8777V25.0308C57.5594 24.8999 58.4623 24.8738 59.3128 25.3056C59.8231 25.5673 60.0848 25.986 60.0848 26.5879ZM62.7279 25.9206C62.5186 24.5598 61.7596 23.6569 60.4773 23.2251C59.8754 23.0158 59.1688 22.898 58.3314 22.8456C57.8211 22.8195 57.3108 22.8587 56.8136 22.898C56.7482 22.898 56.6827 22.9111 56.6173 22.9111V19.9408L58.9988 19.9539L61.6419 20.3334L61.7466 17.9127H53.5948L53.9219 20.9353L53.948 27.687L53.5686 30.8928H54.0396C54.0396 30.8928 55.1518 30.8797 55.6883 30.8928C55.9762 30.9058 56.264 30.9189 56.5388 30.932C56.9314 30.9582 57.337 30.9713 57.7557 30.9713C57.8473 30.9713 57.9389 30.9713 58.0305 30.9713C59.5614 30.932 60.739 30.5395 61.6026 29.7936C62.9765 28.6291 62.9111 27.0328 62.7279 25.9206Z" fill="white"/>
<path d="M70.0423 24.7824C69.6236 24.7824 69.1918 24.7955 68.7469 24.8085C68.3282 24.8216 67.8964 24.8347 67.4777 24.8347C67.7263 24.2197 67.988 23.5917 68.2366 22.9767C68.4329 22.5187 68.6292 22.0477 68.8124 21.6028L70.0423 24.7824ZM70.8274 19.4046L70.4348 17.8082L67.7525 17.8475L67.4384 19.2606L64.1934 27.7657L62.7803 30.8144L65.5935 30.8537L66.0776 28.5246L66.758 26.7582L70.8012 26.7451L71.7302 29.0087L72.2274 30.8275H75.865L74.622 28.6686L70.8274 19.4046Z" fill="white"/>
<path d="M96.8792 30.8408L100.582 30.8016L94.6941 24.0499L100.216 17.887L96.9708 17.9131L96.0025 19.287C96.0025 19.287 93.5164 22.061 92.1556 23.5788V20.216L92.5351 17.9262H89.1331L89.3424 20.1899L89.3947 28.1716L89.1331 30.8278H92.5351L92.1556 28.1846V25.0051L96.8792 30.8408Z" fill="white"/>
<path d="M86.8171 26.9675C86.804 26.1039 86.8564 20.2681 86.8564 20.2812L87.1573 17.9652H83.7945L84.0693 20.2027C84.0693 20.2027 84.0824 21.9037 84.0824 22.9243H79.3327C79.3065 21.4588 79.3196 19.9541 79.6859 18.4886L79.8168 17.9652H76.3232L76.3755 18.4363C76.4017 18.6064 76.5979 20.399 76.6241 21.2364C76.6765 22.9767 76.6634 24.7562 76.6503 26.4703V26.8497C76.6503 27.5825 76.4802 29.8331 76.4017 30.2387L76.3101 30.7359H79.6859L79.6336 30.2648C79.5943 29.9639 79.5682 29.663 79.5289 29.3751C79.4504 28.7078 79.3588 28.0666 79.3327 27.4255C79.2934 26.7843 79.3065 26.1039 79.3196 25.4628C79.3196 25.3057 79.3196 25.1618 79.3196 25.0048H84.1609C84.1609 25.3319 84.1609 25.6459 84.174 25.9731C84.2002 27.4516 84.2132 28.8386 83.8338 30.2125L83.6899 30.749H87.2228L87.1311 30.2518C86.8564 29.048 86.8171 27.8573 86.8171 26.9675Z" fill="white"/>
<path d="M129.212 37.2262L129.316 36.7159H122.107L122.159 37.2001C122.421 39.3852 122.604 41.4395 122.722 43.4807C122.813 44.9462 122.787 46.451 122.774 47.9034C122.761 48.4268 122.761 48.9371 122.761 49.4605H109.271C109.192 45.4435 109.153 41.3087 110.173 37.2655L110.304 36.729H102.872L102.938 37.2132C102.951 37.2524 103.5 42.133 103.566 44.4621C103.697 48.924 103.657 53.4775 103.618 57.8739L103.605 58.9207C103.592 60.8311 103.16 66.68 102.964 67.7267L102.859 68.237H110.016L109.964 67.766C109.873 67.0071 109.781 66.2482 109.689 65.4893C109.48 63.8275 109.258 62.1134 109.166 60.4255C109.074 58.7375 109.087 57.0103 109.114 55.3355C109.127 54.7205 109.127 54.1186 109.127 53.5036H122.84C122.826 54.5504 122.853 55.5972 122.866 56.6178C122.918 60.4516 122.97 64.063 121.989 67.7006L121.845 68.2501H129.303L129.212 67.7398C128.623 64.6387 128.531 61.5638 128.505 59.2217C128.479 56.8926 128.505 46.5818 128.597 43.7294C128.688 40.9685 128.885 38.8488 129.212 37.2262Z" fill="white"/>
<path d="M85.2075 64.377V53.2158C88.6488 53.3205 95.2304 53.8438 95.2958 53.8438L95.7538 53.8831L95.7669 48.7539L85.2075 49.3558V40.5498C88.3609 40.5105 94.2491 40.4843 97.3109 41.4395L97.795 41.5835L97.8604 41.0862C98.0698 39.4637 97.9259 37.2132 97.9128 37.1085L97.8866 36.7159H78.8222L78.9007 37.2132C79.5418 41.3479 79.5026 45.5481 79.4633 49.6044C79.4502 50.5465 79.4372 51.4886 79.4372 52.4307C79.4895 58.4366 78.8484 67.6351 78.8353 67.7267L78.8091 68.1847L97.7689 68.2763L97.7819 67.8576C97.8081 66.837 97.8997 64.1023 97.952 63.6966L98.0175 63.1078L97.4418 63.2256C93.6603 64.0238 90.0881 64.3509 85.2075 64.377Z" fill="white"/>
<path d="M69.0087 50.5723C69.0872 50.5199 69.1788 50.4545 69.2573 50.4022C70.9714 49.2245 72.9472 47.4843 73.065 44.5271C73.2351 40.4316 71.0238 37.5399 67.0199 36.5978C63.5524 35.7865 59.9934 35.9174 56.1203 36.9903L56.068 37.0034C54.1968 37.5268 53.8697 37.6969 53.9351 38.1418C54.0398 38.9661 54.1968 39.8951 54.3538 40.798C54.4716 41.4522 54.5763 42.1195 54.6809 42.7607C54.7202 42.9962 54.8772 43.1925 55.1128 43.271C55.3352 43.3364 55.5838 43.2841 55.7408 43.1009L55.9764 42.8392C57.7951 40.9027 60.1634 39.9867 63.186 40.0522C65.1095 40.0914 66.7058 41.3214 67.0722 43.0355C67.5694 45.4169 66.732 47.4712 64.9132 48.2824C64.0496 48.675 63.029 48.9628 61.8252 49.1853C60.6476 49.3946 58.3185 49.5517 58.3054 49.5517L57.8867 49.5778L58.0568 53.5818L58.4755 53.5687C58.5017 53.5687 60.5691 53.5033 62.2963 53.5033C63.0813 53.5033 65.5805 53.6734 66.8498 54.4454C67.975 55.1258 68.7863 56.251 69.0087 57.4287C69.3489 59.2213 69.6499 63.4869 65.0572 64.4944C61.0794 65.3711 57.8475 64.4944 55.4399 61.8644C55.2305 61.6419 55.0212 61.4195 54.7856 61.1578L54.537 60.883C54.38 60.7129 54.1576 60.6606 53.9482 60.726C53.7388 60.7914 53.5949 60.9746 53.5688 61.1971L53.451 62.1784C53.3333 63.1467 53.2285 64.0495 53.0846 64.9393C52.9668 65.7113 53.2155 66.2085 53.9351 66.6141C56.6175 68.0927 59.5747 68.8385 62.7281 68.8385C63.33 68.8385 63.945 68.8124 64.5599 68.76C67.0984 68.5376 69.4405 67.5955 71.3117 66.0384C74.0333 63.7748 75.2763 61.027 74.9885 57.8735C74.6744 54.3407 72.6594 51.8546 69.0087 50.5723Z" fill="white"/>
<path d="M159.856 54.4849C159.856 53.8176 159.856 53.1503 159.856 52.4829C159.856 51.8679 159.856 51.253 159.856 50.6249C159.83 46.163 159.817 41.5572 160.602 37.2131L160.693 36.7028H153.261L153.353 37.2131C153.601 38.5608 153.824 39.987 153.994 41.4656C154.046 41.9236 153.994 42.146 153.758 42.4077C151.403 44.9723 149.087 47.5762 146.85 50.0884C144.808 52.3913 142.702 54.7597 140.569 57.1018C140.621 55.126 140.582 53.1633 140.543 51.253C140.451 46.4247 140.36 41.8712 141.537 37.2785L141.681 36.742H134.066L134.236 37.2916C134.943 39.6337 134.956 41.9366 134.956 44.3835L134.969 46.7256C134.982 50.8212 134.995 55.0606 134.956 59.2346C134.943 59.8627 134.969 60.4908 134.982 61.1058C135.008 62.2572 135.047 63.4479 134.93 64.5994C134.864 65.2929 134.694 65.9733 134.537 66.706C134.458 67.0331 134.38 67.3733 134.315 67.7135L134.21 68.2239H141.537L141.459 67.7266C141.302 66.706 141.197 65.6854 141.092 64.7041C141.027 64.1283 140.975 63.5526 140.909 62.99C140.883 62.7544 140.988 62.4011 141.132 62.2441C143.225 59.9543 145.28 57.6252 147.281 55.3746C149.545 52.8231 151.874 50.1931 154.256 47.6023C154.256 47.864 154.256 48.1257 154.256 48.3874C154.256 49.6043 154.256 50.7688 154.243 51.9203C154.229 53.3203 154.243 54.7335 154.256 56.0943C154.282 58.2009 154.308 60.373 154.216 62.5189C154.164 63.6965 153.968 64.8611 153.758 66.091C153.667 66.6406 153.575 67.1902 153.497 67.7528L153.431 68.25H160.733L160.641 67.7397C159.83 63.5526 159.843 58.9468 159.856 54.4849Z" fill="white"/>
<path d="M178.606 40.9159C178.606 40.8504 178.606 40.7589 178.619 40.6542L188.001 41.8711L187.399 36.6633H163.938L163.415 41.8711L173.464 40.6411V41.1907C173.464 45.1292 173.451 59.7971 173.451 60.5168L172.483 68.2106H179.601L178.711 60.6607C178.724 60.5299 178.633 47.419 178.606 40.9159Z" fill="white"/>
<path d="M263.265 18.0442V20.4649H261.302V30.8672H258.803V20.4649H256.827V18.0442H263.265Z" fill="white"/>
<path d="M262.27 36.3365V40.4059H244.2V45.823C254.328 46.8567 262.27 55.5318 262.27 66.052C262.27 77.2656 253.268 86.3856 242.198 86.3856H240.196V82.3163H242.198C251.056 82.3163 258.253 75.015 258.253 66.052C258.253 57.0889 251.043 49.7877 242.198 49.7877H240.196V36.3365H262.27Z" fill="white"/>
<path d="M255.989 28.3288V30.8672H250.127V18.0442H255.989V20.4649H252.627V23.1865H255.558V25.6203H252.627V28.3288H255.989Z" fill="white"/>
<path d="M248.322 18.0439V30.8801H245.822V20.3861H244.278V23.4741C244.278 23.6573 244.278 23.9582 244.265 24.4031C244.252 24.848 244.226 25.3321 244.174 25.8555C244.135 26.3789 244.056 26.9154 243.964 27.4257C243.873 27.9752 243.742 28.4201 243.572 28.7996C243.284 29.4277 242.905 29.938 242.447 30.3043C241.963 30.6969 241.374 30.8932 240.693 30.8932H240.196V28.3809L240.576 28.3547C240.811 28.3416 240.994 28.2762 241.112 28.1584C241.256 28.0145 241.387 27.8313 241.491 27.6089C241.57 27.4126 241.648 27.1509 241.701 26.85C241.766 26.5228 241.805 26.1696 241.832 25.8032C241.871 25.4368 241.884 25.0443 241.897 24.6387C241.91 24.233 241.91 23.8536 241.91 23.4872V18.057H248.322V18.0439Z" fill="white"/>
<path d="M244.213 64.0107V68.0801H212.862V54.629H214.864C223.723 54.629 230.919 47.3408 230.919 38.3647C230.919 29.4016 223.723 22.1004 214.864 22.1004H212.849V18.031H214.864C225.934 18.031 234.936 27.151 234.936 38.3647C234.936 49.2773 226.405 58.2142 216.866 58.6721V64.0107H244.213Z" fill="white"/>
</svg>
