<svg width="865" height="302" viewBox="0 0 865 302" fill="none" xmlns="http://www.w3.org/2000/svg">
<path opacity="0.3" d="M285.52 196.36C284.61 197.896 282.622 198.406 281.081 197.498C279.54 196.59 279.029 194.609 279.939 193.073L293.17 170.808C294.081 169.272 296.068 168.762 297.61 169.67C299.151 170.578 299.662 172.559 298.751 174.095L297.439 176.304C297.952 176.283 298.477 176.385 298.972 176.623L335.858 194.435C337.47 195.21 338.145 197.14 337.368 198.746C336.59 200.352 334.654 201.026 333.042 200.251L296.156 182.438C295.484 182.115 294.974 181.59 294.665 180.971L285.52 196.36ZM615.338 183.862C614.14 185.189 612.09 185.296 610.759 184.102C609.428 182.908 609.32 180.865 610.518 179.538L650.268 135.464C651.466 134.138 653.516 134.03 654.847 135.224C656.178 136.418 656.286 138.462 655.088 139.788L615.338 183.862ZM524.427 137.076C523.657 135.463 524.344 133.533 525.962 132.765C527.58 131.997 529.517 132.682 530.287 134.294C530.344 134.412 549.873 175.382 554.442 175.621C556.228 175.712 557.603 177.229 557.512 179.01C557.421 180.79 555.899 182.16 554.112 182.069C545.622 181.624 524.488 137.204 524.427 137.076H524.427ZM486.047 175.488C484.807 176.773 482.757 176.813 481.468 175.577C480.179 174.341 480.139 172.298 481.379 171.013L516.923 134.159C518.163 132.874 520.213 132.834 521.502 134.07C522.791 135.306 522.831 137.35 521.591 138.634L486.047 175.488ZM415.971 183.808C414.234 184.227 412.485 183.163 412.064 181.431C411.644 179.699 412.712 177.956 414.449 177.537L480.66 161.552C482.398 161.133 484.147 162.197 484.567 163.928C484.988 165.66 483.92 167.404 482.183 167.823L415.971 183.808ZM345.667 197.578C344.714 199.086 342.715 199.539 341.202 198.589C339.689 197.64 339.235 195.647 340.188 194.139L365.504 154.29C366.456 152.782 368.455 152.329 369.968 153.279C371.482 154.228 371.936 156.221 370.983 157.729L345.667 197.578Z" fill="#73DDFF"/>
<g filter="url(#filter0_ddd)">
<path d="M275.93 183.927C275.502 185.652 273.747 186.707 272.009 186.282C270.271 185.858 269.209 184.115 269.636 182.39C269.64 182.377 270.787 177.932 268.311 174.889C267.558 173.963 266.796 173.313 266.038 172.897C264.881 172.26 263.637 172.169 262.397 172.454C260.927 172.793 259.422 173.643 258.005 174.78C255.838 176.517 253.96 178.86 252.693 181.13C250.997 184.171 249.811 187.61 249.467 190.933C249.178 193.723 249.493 196.391 250.625 198.578C251.64 200.537 252.886 202.098 254.314 203.225C255.97 204.532 257.902 205.265 260.025 205.359C262.298 205.46 264.837 204.852 267.556 203.464C271.467 201.468 275.668 197.909 279.928 192.588C281.042 191.197 283.082 190.966 284.483 192.072C285.885 193.178 286.118 195.203 285.004 196.594C280.148 202.659 275.221 206.786 270.525 209.183C266.77 211.1 263.129 211.933 259.745 211.783C256.211 211.626 253.008 210.417 250.279 208.264C248.135 206.572 246.305 204.307 244.865 201.525C243.118 198.152 242.611 194.244 243.021 190.278C243.455 186.08 244.93 181.777 247.034 178.006C248.668 175.077 251.11 172.039 253.944 169.766C256.072 168.06 258.454 166.756 260.951 166.181C263.678 165.554 266.48 165.792 269.185 167.279C270.654 168.087 272.059 169.259 273.361 170.858C277.875 176.406 275.935 183.905 275.93 183.927L275.93 183.927ZM679.36 165.917C680.313 164.415 682.313 163.963 683.826 164.91C685.34 165.856 685.795 167.841 684.842 169.343C684.796 169.415 669.103 194.285 660.296 189.172C657.175 187.359 654.77 184.027 653.211 179.007C652.068 175.324 651.354 170.635 651.125 164.857C647.173 172.103 642.937 177.117 639.003 179.813C636.509 181.522 634.039 182.383 631.712 182.383C629.098 182.383 626.796 181.352 624.941 179.276C622.971 177.071 621.584 173.66 621.01 169.045C619.854 159.759 622.105 150.887 625.765 143.747C630.47 134.569 637.746 128.094 643.346 127.042C655.612 124.739 655.771 137.612 655.772 137.649C655.807 139.423 654.387 140.889 652.6 140.924C650.813 140.959 649.336 139.549 649.301 137.775C649.301 137.76 649.232 132.484 644.539 133.366C640.708 134.085 635.365 139.23 631.551 146.67C628.41 152.797 626.474 160.379 627.455 168.264C627.864 171.543 628.682 173.781 629.788 175.018C630.35 175.647 631.003 175.959 631.712 175.959C632.708 175.959 633.93 175.478 635.324 174.522C639.099 171.935 643.378 166.379 647.4 157.91C648.968 154.61 650.052 152.046 650.731 150.439C652.339 146.637 653.093 144.854 656.441 146.961C658.178 148.055 658.077 149.344 657.889 151.772C657.74 153.698 657.475 157.115 657.521 161.747C657.587 168.29 658.24 173.37 659.403 177.117C660.457 180.513 661.866 182.64 663.57 183.629C666.91 185.569 679.324 165.974 679.36 165.917L679.36 165.917ZM557.339 178.753C557.353 180.527 555.915 181.977 554.129 181.991C552.342 182.005 550.882 180.578 550.868 178.804C550.867 178.778 550.749 169.992 552.154 160.351C552.394 158.702 552.514 157.852 552.63 157.036C553.82 148.657 554.605 143.125 557.676 141.6C561.194 139.854 564.674 143.215 569.716 153.226C573.849 161.432 573.116 161.051 574.099 157.28C575.167 153.332 576.597 148.042 579.043 141.786C584.058 128.964 588.515 125.107 592.972 126.824C597.636 128.622 600.247 137.434 603.364 147.955C604.039 150.235 604.74 152.601 605.442 154.855C609.317 170.187 615.748 180.101 615.926 181.019C616.119 182.014 615.852 183.077 615.108 183.852C615.092 183.869 609.597 189.993 599.25 156.744C598.487 154.293 597.804 151.989 597.147 149.769C594.518 140.898 592.316 133.467 590.638 132.82C590.008 132.577 588.394 135.637 585.083 144.104C582.803 149.935 581.408 155.093 580.367 158.943C579.009 163.967 578.145 167.163 575.799 168.327C572.043 170.192 569.185 166.533 563.93 156.098C560.944 150.171 561.165 147.049 560.569 147.344C560.55 147.353 559.954 151.555 559.05 157.918C558.866 159.221 558.671 160.592 558.574 161.258C557.228 170.501 557.338 178.73 557.339 178.753V178.753ZM516.825 134.169C518.115 132.938 520.165 132.977 521.406 134.257C522.646 135.537 522.606 137.573 521.317 138.805C521.302 138.819 516.116 143.617 515.169 157.606C514.606 165.938 516.345 170.606 519.015 172.534C520.05 173.281 521.262 173.602 522.533 173.556C523.974 173.504 525.513 173.004 527.01 172.129C531.473 169.522 535.271 163.807 535.271 156.596C535.271 141.287 526.299 138.872 526.274 138.864C524.557 138.37 523.568 136.588 524.066 134.884C524.563 133.179 526.358 132.198 528.075 132.692C528.115 132.703 541.767 136.412 541.767 156.596C541.767 166.272 536.488 174.048 530.284 177.671C527.873 179.08 525.289 179.888 522.762 179.98C520.065 180.077 517.464 179.377 515.208 177.749C510.863 174.612 507.962 168.061 508.698 157.178C509.814 140.68 516.805 134.188 516.825 134.169L516.825 134.169ZM478.851 162.481C480.07 161.18 482.121 161.107 483.431 162.317C484.742 163.528 484.816 165.564 483.596 166.864C483.539 166.926 463.548 188.474 457.931 183.296C455.362 180.927 454.517 173.957 456.477 166.175C457.89 160.561 460.685 154.272 465.215 148.855C471.242 141.646 476.633 139.28 482.076 143.333C486.371 146.53 490.083 154.609 493.652 168.783C495.232 175.056 496.583 183.195 497.331 192.041C498.535 206.284 498.181 222.491 494.707 235.92C491.055 250.038 483.949 261.15 471.623 264.21C470.227 264.556 468.78 264.796 467.281 264.92C428.524 268.149 480.512 171.97 480.66 171.693C481.501 170.128 483.461 169.536 485.038 170.37C486.615 171.205 487.211 173.151 486.37 174.716C486.238 174.963 439.958 260.728 466.748 258.496C467.912 258.399 469.012 258.219 470.049 257.962C479.648 255.58 485.352 246.264 488.439 234.333C491.703 221.714 492.016 206.251 490.86 192.57C490.14 184.059 488.855 176.287 487.359 170.345C484.167 157.672 481.233 150.735 478.194 148.472C476.303 147.065 473.673 148.794 470.189 152.961C466.362 157.538 463.985 162.913 462.77 167.737C461.375 173.279 461.318 177.636 462.347 178.585C463.147 179.322 478.806 162.529 478.851 162.481V162.481ZM364.823 155.46C365.139 153.714 366.82 152.552 368.579 152.865C370.338 153.178 371.508 154.848 371.193 156.594C371.178 156.677 365.849 185.504 369.712 186.184C370.414 186.308 372.351 184.83 374.838 182.57C378.954 178.83 383.754 173.176 387.711 168.199C388.704 166.949 389.883 165.448 390.897 164.158C395.915 157.768 397.995 155.122 400.926 158.538V158.551C402.18 160.012 401.838 161.933 401.254 165.212C400.756 168.007 400.009 172.205 399.589 177.542C399.206 182.405 398.993 187.342 399.251 190.972C399.362 192.525 399.392 194.599 402.424 191.449C403.272 190.567 404.042 189.344 405.017 187.99C406.883 185.403 409.163 182.24 412.579 178.458C413.771 177.136 415.816 177.023 417.147 178.206C418.479 179.388 418.592 181.418 417.401 182.74C414.358 186.109 412.124 189.208 410.296 191.744C406.484 197.03 404.169 200.241 398.845 200.647C394.916 200.947 393.189 197.17 392.78 191.426C392.496 187.425 392.715 182.176 393.118 177.064C393.295 174.812 393.523 172.77 393.766 170.944C393.467 171.322 393.142 171.732 392.786 172.179C388.666 177.362 383.63 183.283 379.203 187.306C375.296 190.856 371.563 193.055 368.596 192.533C358.25 190.71 364.805 155.561 364.823 155.46L364.823 155.46ZM335.498 194.26C337.138 194.97 337.888 196.865 337.173 198.492C336.458 200.12 334.549 200.865 332.91 200.155C332.849 200.129 311.821 191.235 317.879 167.304C319.484 160.964 322.242 156.608 325.564 153.96C328.357 151.733 331.515 150.713 334.738 150.734C337.87 150.754 341.008 151.765 343.871 153.607C348.158 156.365 351.882 161.038 353.992 167.027C354.925 169.676 355.579 172.152 355.986 174.448C357.08 180.635 356.469 185.793 354.698 189.756C352.792 194.022 349.576 196.912 345.656 198.272C344.848 198.553 344.042 198.763 343.242 198.903C341.476 199.209 339.794 198.036 339.486 196.283C339.178 194.53 340.359 192.861 342.125 192.554C342.635 192.466 343.102 192.347 343.525 192.201C345.758 191.426 347.618 189.718 348.76 187.161C350.038 184.301 350.449 180.409 349.591 175.557C349.234 173.541 348.671 171.4 347.876 169.144C346.258 164.55 343.49 161.023 340.344 158.998C338.508 157.818 336.572 157.17 334.713 157.158C332.945 157.147 331.195 157.72 329.624 158.973C327.351 160.786 325.406 163.993 324.173 168.866C319.46 187.481 335.452 194.24 335.498 194.26L335.498 194.26ZM297.744 174.902C296.357 176.022 294.317 175.814 293.189 174.436C292.061 173.059 292.271 171.034 293.658 169.914C293.7 169.881 308.213 158.267 311.889 145.046C313.019 140.982 313.182 137.682 312.589 135.306C312.282 134.072 311.781 133.162 311.128 132.614C310.576 132.151 309.837 131.921 308.943 131.954C307.569 132.005 305.88 132.619 303.939 133.867C299.844 136.5 296.49 143.282 294.326 151.16C291.866 160.114 291.059 170.266 292.469 177.492C293.851 184.573 296.094 190.67 298.72 194.76C300.739 197.907 302.76 199.691 304.412 199.393C304.486 199.379 304.605 199.345 304.764 199.29C306.198 198.802 307.228 197.027 307.873 194.978C308.643 192.533 308.804 189.88 308.487 188.145C308.453 187.961 308.4 187.765 308.33 187.56C307.799 186.022 306.36 184.283 304.253 183.229C302.58 182.392 300.477 182.027 298.054 182.598C296.309 183.008 294.56 181.937 294.146 180.204C293.733 178.472 294.812 176.735 296.557 176.325C300.627 175.365 304.243 176.02 307.171 177.485C310.879 179.341 313.467 182.561 314.471 185.469C314.617 185.892 314.746 186.411 314.856 187.012C315.336 189.629 315.138 193.483 314.065 196.893C312.867 200.699 310.572 204.127 306.87 205.387C306.494 205.515 306.056 205.625 305.554 205.716C301.014 206.535 296.733 203.617 293.264 198.212C290.204 193.445 287.632 186.552 286.1 178.701C284.514 170.577 285.38 159.312 288.083 149.472C290.628 140.207 294.887 132.028 300.412 128.475C303.376 126.569 306.194 125.623 308.715 125.53C311.279 125.435 313.516 126.191 315.315 127.702C317.013 129.127 318.238 131.18 318.883 133.769C319.727 137.155 319.572 141.576 318.131 146.759C313.9 161.978 297.791 174.865 297.744 174.902V174.902Z" fill="#73DDFF"/>
</g>
<g filter="url(#filter1_di)">
<path fill-rule="evenodd" clip-rule="evenodd" d="M206.268 109.731V41.3933C206.268 40.4035 207.042 39.5898 208.034 39.5495C220.425 39.0462 243.556 38.314 249.471 38.9299C257.231 39.7382 266.613 44.0103 266.613 57.7502C266.613 66.8566 261.684 71.8898 257.951 74.0051C257.511 74.2547 257.633 75.2249 258.123 75.3532C263.448 76.7476 270.687 81.7824 269.161 94.3516C267.4 108.854 256.922 112.248 251.903 112.133L208.097 111.579C207.083 111.566 206.268 110.743 206.268 109.731ZM230.378 55.7832V66.8675C230.378 67.1226 230.585 67.3294 230.841 67.3294H240.802C241.729 67.4063 243.559 66.6366 243.466 62.9418C243.395 60.108 244.111 55.3213 240.223 55.3213H230.84C230.585 55.3213 230.378 55.5281 230.378 55.7832ZM230.378 82.1085V95.7579C230.378 96.003 230.57 96.2055 230.816 96.2191L240.802 96.7721C241.96 96.8491 244.323 96.4488 244.509 94.232C244.694 92.0151 244.74 87.0733 244.74 84.8796C244.856 83.8019 244.231 81.6466 240.802 81.6466H230.84C230.584 81.6466 230.378 81.8534 230.378 82.1085Z" fill="#FF9900"/>
<path d="M135.414 41.4493L136.623 110.801C136.642 111.845 137.523 112.667 138.569 112.614L157.994 111.641C158.96 111.593 159.727 110.812 159.754 109.848L160.464 84.4447C160.493 83.4157 161.366 82.6074 162.367 82.8578C165.511 83.6435 170.008 86.1926 171.752 92.3888C173.652 99.1436 176.001 106.829 177.254 110.842C177.494 111.613 178.209 112.133 179.018 112.133H200.162C201.444 112.133 202.338 110.866 201.907 109.663L193.179 85.3456C192.11 82.9996 188.688 78.014 183.135 75.5192C182.717 75.3315 182.744 74.6614 183.177 74.5096C187.465 73.0049 190.061 70.247 190.981 68.7911C191.059 68.6672 191.115 68.5327 191.157 68.3922L198.446 43.5395C198.776 42.4134 197.983 41.2696 196.81 41.1792L178.115 39.7382C177.242 39.6709 176.44 40.2226 176.194 41.0607L171.288 57.7502C170.48 60.5545 167.455 65.8938 161.531 66.7543C160.527 66.9001 159.706 66.0606 159.706 65.0497V40.8284C159.706 39.7875 158.844 38.9545 157.8 38.9842L137.214 39.5705C136.199 39.5995 135.397 40.4372 135.414 41.4493Z" fill="#FF9900"/>
<path d="M30.5328 41.554L31.1751 55.6403C31.2201 56.627 32.0356 57.4038 33.0264 57.4038H58.7039C59.0861 57.4038 59.3039 57.8391 59.074 58.1435L30.3727 96.1428C30.1194 96.4781 29.9883 96.8895 30.0008 97.3091L30.3916 110.358C30.4213 111.349 31.2308 112.141 32.2255 112.15L86.8333 112.692C87.8639 112.702 88.7049 111.872 88.7049 110.844V97.5383C88.7049 96.5363 87.9035 95.7169 86.8987 95.6915L57.6711 94.9526C57.288 94.9429 57.0817 94.5002 57.3213 94.2021L87.603 56.5246C87.8664 56.1969 88.0099 55.7895 88.0099 55.3695V41.4701C88.0099 40.4498 87.1802 39.6227 86.1567 39.6227H32.3841C31.3275 39.6227 30.4848 40.5019 30.5328 41.554Z" fill="#FF9900"/>
<path d="M94.9 90.5673L94.5575 80.0668C94.5238 79.0341 95.3463 78.1746 96.3827 78.1595L124.257 77.7539C125.327 77.7383 126.188 78.6265 126.135 79.6918L125.622 90.0878C125.575 91.0582 124.781 91.8258 123.807 91.8442L96.7874 92.3543C95.7738 92.3734 94.933 91.5772 94.9 90.5673Z" fill="#FF9900"/>
<path fill-rule="evenodd" clip-rule="evenodd" d="M291.225 112.133H271.024C269.797 112.133 268.907 110.974 269.237 109.796C275.072 89.0016 285.892 50.455 287.23 45.7422C288.62 40.8466 294.681 39.6997 297.538 39.7382C301.476 39.7767 310.534 39.8306 315.259 39.7382C319.985 39.6458 321.861 41.6241 322.209 42.6247L342.495 109.213C342.842 110.351 342.034 111.515 340.844 111.593L321.821 112.845C320.962 112.901 320.178 112.361 319.927 111.541L315.685 97.7042C315.435 96.8887 314.658 96.3497 313.804 96.3998L298.787 97.2804C298.033 97.3246 297.38 97.8217 297.14 98.5363L292.982 110.874C292.728 111.626 292.021 112.133 291.225 112.133ZM302.966 79.7444L309.837 79.26C310.979 79.1796 311.775 78.0978 311.509 76.9884L307.428 59.9403C307.266 59.263 306.659 58.7852 305.96 58.7852C305.239 58.7852 304.619 59.2938 304.48 59.9991L301.017 77.545C300.782 78.7391 301.748 79.8302 302.966 79.7444Z" fill="#FF9900"/>
<path fill-rule="evenodd" clip-rule="evenodd" d="M368.709 112.878L347.991 112.192C346.986 112.159 346.191 111.334 346.199 110.331L346.75 41.5261C346.758 40.5294 347.557 39.7187 348.557 39.694L384.291 38.8145C386.762 38.622 393.349 39.1147 399.928 42.6247C406.216 45.9799 408.138 53.1188 408.362 56.7004C408.301 57.0083 408.128 59.5627 407.804 69.0655C407.341 82.6438 392.167 87.8858 386.608 87.8858H372.477C371.454 87.8858 370.624 88.7129 370.624 89.7332V111.031C370.624 112.076 369.756 112.912 368.709 112.878ZM370.508 69.7541V56.9378C370.508 55.9175 371.338 55.0904 372.361 55.0904H379.427C380.971 55.2059 384.176 56.1065 384.639 58.7852C385.218 62.1336 384.87 69.1768 383.712 69.985C383.541 70.1044 383.431 70.2238 383.323 70.3406C382.734 70.9765 382.218 71.5351 372.372 71.596C371.348 71.6023 370.508 70.7743 370.508 69.7541Z" fill="#FF9900"/>
<path d="M408.383 57.1729C408.395 56.8495 408.389 56.5683 408.362 56.7004C408.373 56.8657 408.38 57.0235 408.383 57.1729Z" fill="#FF9900"/>
<path d="M410.066 41.84L411.983 55.58C412.11 56.4932 412.894 57.1729 413.819 57.1729H428.321C429.338 57.1729 430.165 57.9905 430.174 59.0046L430.606 109.608C430.614 110.622 431.442 111.44 432.459 111.44H451.15C452.163 111.44 452.988 110.63 453.003 109.621L453.761 59.6898C453.775 58.7254 454.532 57.9345 455.497 57.874L472.184 56.8284C473.214 56.7638 473.993 55.8728 473.916 54.8468L472.91 41.4477C472.838 40.4836 472.032 39.7382 471.062 39.7382H411.902C410.777 39.7382 409.911 40.7293 410.066 41.84Z" fill="#FF9900"/>
<path d="M480.409 109.61L479.749 41.5458C479.739 40.5412 480.537 39.713 481.544 39.6814L499.943 39.1053C500.988 39.0725 501.854 39.9087 501.854 40.9517V77.8618C501.854 78.3483 502.511 78.5041 502.731 78.0697L521.939 40.0965C522.264 39.4553 522.931 39.0596 523.651 39.0818L543.145 39.6828C544.146 39.7137 544.941 40.5313 544.941 41.5293V110.225C544.941 111.268 544.074 112.105 543.028 112.071L525.191 111.498C524.191 111.466 523.398 110.648 523.398 109.651V72.8816C523.398 72.4004 522.752 72.2399 522.525 72.6648L502.377 110.46C502.055 111.063 501.426 111.44 500.74 111.44H482.262C481.245 111.44 480.418 110.624 480.409 109.61Z" fill="#FF9900"/>
<path fill-rule="evenodd" clip-rule="evenodd" d="M556.723 110.318L555.513 41.5694C555.496 40.5555 556.3 39.7168 557.316 39.6912C566.91 39.45 585.555 39.0454 596.136 39.0454C607.268 39.0454 613.024 46.3609 614.598 50.1858C614.647 50.3038 614.702 50.4114 614.769 50.5206C616.345 53.1169 618.488 60.8889 615.131 72.6448C611.703 84.6528 603.356 87.5779 599.611 87.5394H581.457C580.467 87.5394 579.652 88.3146 579.606 89.3001L578.613 110.372C578.567 111.358 577.752 112.133 576.762 112.133H558.576C557.565 112.133 556.741 111.325 556.723 110.318ZM579.573 57.746V69.1462C579.573 70.1327 580.35 70.9452 581.339 70.9915L589.207 71.3606C589.347 71.3672 589.488 71.3611 589.622 71.3223C590.952 70.9396 593.324 68.9826 593.588 63.6346C593.854 58.2438 591.667 56.2985 590.395 55.938C590.285 55.9068 590.171 55.8986 590.057 55.8986H581.426C580.403 55.8986 579.573 56.7257 579.573 57.746Z" fill="#FF9900"/>
<path d="M624.281 109.435V42.3296C624.281 41.3348 625.072 40.5186 626.069 40.4834L645.296 39.8058C646.345 39.7688 647.215 40.6062 647.215 41.652V65.2552C647.215 65.5103 647.422 65.7171 647.678 65.7171H664.241C664.497 65.7171 664.705 65.5103 664.705 65.2552V41.8165C664.705 40.7962 665.534 39.9691 666.558 39.9691H686.248C687.272 39.9691 688.101 40.7962 688.101 41.8165V110.247C688.101 111.282 687.248 112.115 686.21 112.094L667.39 111.707C666.404 111.687 665.607 110.901 665.576 109.918L664.719 82.8127C664.711 82.5549 664.493 82.3537 664.234 82.3659L648.112 83.1312C647.868 83.1428 647.675 83.3415 647.671 83.5852L647.245 110.24C647.229 111.278 646.358 112.098 645.317 112.056L626.06 111.281C625.066 111.241 624.281 110.426 624.281 109.435Z" fill="#FF9900"/>
<path d="M699.661 110.348L698.781 41.8126C698.768 40.7938 699.584 39.9569 700.606 39.9417L720.218 39.6514C721.273 39.6358 722.129 40.5002 722.098 41.5516L721.053 77.8212C721.039 78.3099 721.696 78.4825 721.926 78.0504L741.776 40.6242C742.102 40.0097 742.747 39.6296 743.444 39.6405L762.595 39.9404C763.611 39.9563 764.425 40.7856 764.419 41.7991L763.979 111.853C763.972 112.892 763.108 113.722 762.066 113.688L744.247 113.115C743.235 113.083 742.437 112.247 742.454 111.238L743.086 73.3946C743.095 72.9104 742.445 72.7418 742.215 73.1686L721.533 111.596C721.203 112.209 720.557 112.585 719.86 112.57L701.474 112.172C700.475 112.15 699.674 111.344 699.661 110.348Z" fill="#FF9900"/>
<path d="M775.665 110.322V41.7891C775.665 40.7796 776.478 39.957 777.491 39.9419L797.065 39.6507C798.099 39.6353 798.946 40.466 798.946 41.497V66.9808C798.946 67.1909 799.093 67.3726 799.298 67.4213C807.174 69.2906 809.643 63.6398 809.834 61.0986L813.494 41.4581C813.656 40.5923 814.408 39.9604 815.291 39.9484L836.578 39.6577C837.839 39.6404 838.751 40.856 838.385 42.0597C838.021 43.2574 837.64 44.5326 837.244 45.855L837.239 45.871C835.332 52.2456 833.096 59.7156 830.914 64.9089C828.747 70.0662 827.107 72.3289 822.165 74.1397C821.692 74.3128 821.747 75.1281 822.234 75.2575C826.945 76.5104 829.265 79.6096 829.872 81.189L839.894 109.674C840.317 110.875 839.422 112.133 838.145 112.133H818.507C817.636 112.133 816.883 111.529 816.691 110.682C814.923 102.874 811.371 88.9571 809.023 85.9229C806.648 82.8535 801.787 82.7329 799.319 83.0909C799.101 83.1227 798.944 83.3104 798.94 83.5306L798.512 110.739C798.496 111.762 797.648 112.578 796.621 112.557L777.481 112.17C776.472 112.149 775.665 111.328 775.665 110.322Z" fill="#FF9900"/>
</g>
<g filter="url(#filter2_ddd)">
<path d="M495.387 39.503C495.387 41.99 493.364 44.006 490.869 44.006C488.375 44.006 486.352 41.99 486.352 39.503C486.352 37.0161 488.375 35 490.869 35C493.364 35 495.387 37.0161 495.387 39.503Z" fill="#FFCC00"/>
<path d="M153.007 41.1195C153.007 43.6064 150.984 45.6225 148.489 45.6225C145.995 45.6225 143.972 43.6064 143.972 41.1195C143.972 38.6325 145.995 36.6165 148.489 36.6165C150.984 36.6165 153.007 38.6325 153.007 41.1195Z" fill="#FFCC00"/>
<path d="M43.8991 48.509C43.8991 50.996 41.8767 53.012 39.3819 53.012C36.8872 53.012 34.8647 50.996 34.8647 48.509C34.8647 46.0221 36.8872 44.006 39.3819 44.006C41.8767 44.006 43.8991 46.0221 43.8991 48.509Z" fill="#FFCC00"/>
<path d="M83.7431 48.509C83.7431 50.996 81.7206 53.012 79.2259 53.012C76.7311 53.012 74.7087 50.996 74.7087 48.509C74.7087 46.0221 76.7311 44.006 79.2259 44.006C81.7206 44.006 83.7431 46.0221 83.7431 48.509Z" fill="#FFCC00"/>
<path d="M55.5975 85.3414C58.0923 85.3414 60.1147 83.3253 60.1147 80.8384C60.1147 78.3514 58.0923 76.3353 55.5975 76.3353C53.1027 76.3353 51.0803 78.3514 51.0803 80.8384C51.0803 83.3253 53.1027 85.3414 55.5975 85.3414Z" fill="#FFCC00"/>
<path d="M65.906 106.933C65.906 109.42 63.8835 111.436 61.3888 111.436C58.894 111.436 56.8716 109.42 56.8716 106.933C56.8716 104.446 58.894 102.43 61.3888 102.43C63.8835 102.43 65.906 104.446 65.906 106.933Z" fill="#FFCC00"/>
<path d="M99.3795 89.9598C101.874 89.9598 103.897 87.9438 103.897 85.4568C103.897 82.9699 101.874 80.9538 99.3795 80.9538C96.8847 80.9538 94.8623 82.9699 94.8623 85.4568C94.8623 87.9438 96.8847 89.9598 99.3795 89.9598Z" fill="#FFCC00"/>
<path d="M147.563 85.3414C150.058 85.3414 152.08 83.3253 152.08 80.8384C152.08 78.3514 150.058 76.3353 147.563 76.3353C145.068 76.3353 143.046 78.3514 143.046 80.8384C143.046 83.3253 145.068 85.3414 147.563 85.3414Z" fill="#FFCC00"/>
<path d="M170.38 77.1436C170.38 79.6305 168.358 81.6466 165.863 81.6466C163.369 81.6466 161.346 79.6305 161.346 77.1436C161.346 74.6566 163.369 72.6406 165.863 72.6406C168.358 72.6406 170.38 74.6566 170.38 77.1436Z" fill="#FFCC00"/>
<path d="M185.554 53.012C188.048 53.012 190.071 50.996 190.071 48.509C190.071 46.0221 188.048 44.006 185.554 44.006C183.059 44.006 181.036 46.0221 181.036 48.509C181.036 50.996 183.059 53.012 185.554 53.012Z" fill="#FFCC00"/>
<path d="M190.071 106.24C190.071 108.727 188.048 110.743 185.554 110.743C183.059 110.743 181.036 108.727 181.036 106.24C181.036 103.753 183.059 101.737 185.554 101.737C188.048 101.737 190.071 103.753 190.071 106.24Z" fill="#FFCC00"/>
<path d="M234.895 112.821C237.39 112.821 239.412 110.805 239.412 108.318C239.412 105.831 237.39 103.815 234.895 103.815C232.4 103.815 230.378 105.831 230.378 108.318C230.378 110.805 232.4 112.821 234.895 112.821Z" fill="#FFCC00"/>
<path d="M289.217 93.3082C289.217 95.7952 287.195 97.8112 284.7 97.8112C282.205 97.8112 280.183 95.7952 280.183 93.3082C280.183 90.8213 282.205 88.8052 284.7 88.8052C287.195 88.8052 289.217 90.8213 289.217 93.3082Z" fill="#FFCC00"/>
<path d="M293.735 59.0161C296.229 59.0161 298.252 57 298.252 54.5131C298.252 52.0261 296.229 50.01 293.735 50.01C291.24 50.01 289.217 52.0261 289.217 54.5131C289.217 57 291.24 59.0161 293.735 59.0161Z" fill="#FFCC00"/>
<path d="M323.965 52.6657C323.965 55.1526 321.943 57.1687 319.448 57.1687C316.953 57.1687 314.931 55.1526 314.931 52.6657C314.931 50.1787 316.953 48.1627 319.448 48.1627C321.943 48.1627 323.965 50.1787 323.965 52.6657Z" fill="#FFCC00"/>
<path d="M330.567 100.12C333.062 100.12 335.084 98.1044 335.084 95.6175C335.084 93.1305 333.062 91.1145 330.567 91.1145C328.072 91.1145 326.05 93.1305 326.05 95.6175C326.05 98.1044 328.072 100.12 330.567 100.12Z" fill="#FFCC00"/>
<path d="M308.444 88.6898C308.444 91.1767 306.422 93.1928 303.927 93.1928C301.432 93.1928 299.41 91.1767 299.41 88.6898C299.41 86.2028 301.432 84.1867 303.927 84.1867C306.422 84.1867 308.444 86.2028 308.444 88.6898Z" fill="#FFCC00"/>
<path d="M358.133 95.502C360.628 95.502 362.651 93.4859 362.651 90.999C362.651 88.5121 360.628 86.496 358.133 86.496C355.639 86.496 353.616 88.5121 353.616 90.999C353.616 93.4859 355.639 95.502 358.133 95.502Z" fill="#FFCC00"/>
<path d="M362.651 51.2801C362.651 53.7671 360.628 55.7831 358.133 55.7831C355.639 55.7831 353.616 53.7671 353.616 51.2801C353.616 48.7932 355.639 46.7771 358.133 46.7771C360.628 46.7771 362.651 48.7932 362.651 51.2801Z" fill="#FFCC00"/>
<path d="M372.496 48.6245C374.991 48.6245 377.013 46.6084 377.013 44.1215C377.013 41.6345 374.991 39.6185 372.496 39.6185C370.001 39.6185 367.979 41.6345 367.979 44.1215C367.979 46.6084 370.001 48.6245 372.496 48.6245Z" fill="#FFCC00"/>
<path d="M403.653 65.1355C403.653 67.6225 401.63 69.6386 399.136 69.6386C396.641 69.6386 394.618 67.6225 394.618 65.1355C394.618 62.6486 396.641 60.6325 399.136 60.6325C401.63 60.6325 403.653 62.6486 403.653 65.1355Z" fill="#FFCC00"/>
<path d="M418.826 53.012C421.321 53.012 423.343 50.996 423.343 48.509C423.343 46.0221 421.321 44.006 418.826 44.006C416.331 44.006 414.309 46.0221 414.309 48.509C414.309 50.996 416.331 53.012 418.826 53.012Z" fill="#FFCC00"/>
<path d="M468.978 47.3544C468.978 49.8414 466.956 51.8574 464.461 51.8574C461.966 51.8574 459.944 49.8414 459.944 47.3544C459.944 44.8675 461.966 42.8514 464.461 42.8514C466.956 42.8514 468.978 44.8675 468.978 47.3544Z" fill="#FFCC00"/>
<path d="M439.906 76.7972C442.401 76.7972 444.423 74.7811 444.423 72.2942C444.423 69.8072 442.401 67.7912 439.906 67.7912C437.411 67.7912 435.389 69.8072 435.389 72.2942C435.389 74.7811 437.411 76.7972 439.906 76.7972Z" fill="#FFCC00"/>
<path d="M446.74 112.013C446.74 114.5 444.717 116.516 442.223 116.516C439.728 116.516 437.706 114.5 437.706 112.013C437.706 109.526 439.728 107.51 442.223 107.51C444.717 107.51 446.74 109.526 446.74 112.013Z" fill="#FFCC00"/>
<path d="M489.943 83.494C492.438 83.494 494.46 81.4779 494.46 78.991C494.46 76.504 492.438 74.488 489.943 74.488C487.448 74.488 485.426 76.504 485.426 78.991C485.426 81.4779 487.448 83.494 489.943 83.494Z" fill="#FFCC00"/>
<path d="M505.463 90.6526C507.958 90.6526 509.981 88.6365 509.981 86.1496C509.981 83.6627 507.958 81.6466 505.463 81.6466C502.969 81.6466 500.946 83.6627 500.946 86.1496C500.946 88.6365 502.969 90.6526 505.463 90.6526Z" fill="#FFCC00"/>
<path d="M530.829 53.8203C530.829 56.3072 528.807 58.3233 526.312 58.3233C523.817 58.3233 521.795 56.3072 521.795 53.8203C521.795 51.3333 523.817 49.3173 526.312 49.3173C528.807 49.3173 530.829 51.3333 530.829 53.8203Z" fill="#FFCC00"/>
<path d="M536.736 67.3293C539.231 67.3293 541.253 65.3132 541.253 62.8263C541.253 60.3394 539.231 58.3233 536.736 58.3233C534.241 58.3233 532.219 60.3394 532.219 62.8263C532.219 65.3132 534.241 67.3293 536.736 67.3293Z" fill="#FFCC00"/>
<path d="M540.558 102.083C540.558 104.57 538.536 106.586 536.041 106.586C533.547 106.586 531.524 104.57 531.524 102.083C531.524 99.5964 533.547 97.5803 536.041 97.5803C538.536 97.5803 540.558 99.5964 540.558 102.083Z" fill="#FFCC00"/>
<path d="M567.546 51.8574C570.041 51.8574 572.063 49.8414 572.063 47.3544C572.063 44.8675 570.041 42.8514 567.546 42.8514C565.051 42.8514 563.029 44.8675 563.029 47.3544C563.029 49.8414 565.051 51.8574 567.546 51.8574Z" fill="#FFCC00"/>
<path d="M605.421 46.1998C605.421 48.6867 603.398 50.7028 600.904 50.7028C598.409 50.7028 596.386 48.6867 596.386 46.1998C596.386 43.7129 598.409 41.6968 600.904 41.6968C603.398 41.6968 605.421 43.7129 605.421 46.1998Z" fill="#FFCC00"/>
<path d="M591.869 82.3394C594.364 82.3394 596.386 80.3233 596.386 77.8363C596.386 75.3494 594.364 73.3333 591.869 73.3333C589.374 73.3333 587.352 75.3494 587.352 77.8363C587.352 80.3233 589.374 82.3394 591.869 82.3394Z" fill="#FFCC00"/>
<path d="M572.758 86.8424C572.758 89.3293 570.736 91.3454 568.241 91.3454C565.746 91.3454 563.724 89.3293 563.724 86.8424C563.724 84.3554 565.746 82.3394 568.241 82.3394C570.736 82.3394 572.758 84.3554 572.758 86.8424Z" fill="#FFCC00"/>
<path d="M635.188 68.0221C637.683 68.0221 639.705 66.006 639.705 63.5191C639.705 61.0321 637.683 59.0161 635.188 59.0161C632.693 59.0161 630.671 61.0321 630.671 63.5191C630.671 66.006 632.693 68.0221 635.188 68.0221Z" fill="#FFCC00"/>
<path d="M638.083 103.469C638.083 105.956 636.061 107.972 633.566 107.972C631.072 107.972 629.049 105.956 629.049 103.469C629.049 100.982 631.072 98.9659 633.566 98.9659C636.061 98.9659 638.083 100.982 638.083 103.469Z" fill="#FFCC00"/>
<path d="M656.036 79.1064C658.531 79.1064 660.554 77.0904 660.554 74.6034C660.554 72.1165 658.531 70.1004 656.036 70.1004C653.542 70.1004 651.519 72.1165 651.519 74.6034C651.519 77.0904 653.542 79.1064 656.036 79.1064Z" fill="#FFCC00"/>
<path d="M680.939 42.7359C680.939 45.2229 678.916 47.239 676.422 47.239C673.927 47.239 671.904 45.2229 671.904 42.7359C671.904 40.249 673.927 38.2329 676.422 38.2329C678.916 38.2329 680.939 40.249 680.939 42.7359Z" fill="#FFCC00"/>
<path d="M676.422 87.4197C678.916 87.4197 680.939 85.4036 680.939 82.9167C680.939 80.4297 678.916 78.4137 676.422 78.4137C673.927 78.4137 671.904 80.4297 671.904 82.9167C671.904 85.4036 673.927 87.4197 676.422 87.4197Z" fill="#FFCC00"/>
<path d="M713.37 40.8886C713.37 43.3755 711.348 45.3916 708.853 45.3916C706.358 45.3916 704.336 43.3755 704.336 40.8886C704.336 38.4016 706.358 36.3855 708.853 36.3855C711.348 36.3855 713.37 38.4016 713.37 40.8886Z" fill="#FFCC00"/>
<path d="M709.779 86.0341C712.274 86.0341 714.297 84.0181 714.297 81.5311C714.297 79.0442 712.274 77.0281 709.779 77.0281C707.285 77.0281 705.262 79.0442 705.262 81.5311C705.262 84.0181 707.285 86.0341 709.779 86.0341Z" fill="#FFCC00"/>
<path d="M725.647 92.8464C725.647 95.3333 723.625 97.3494 721.13 97.3494C718.635 97.3494 716.613 95.3333 716.613 92.8464C716.613 90.3594 718.635 88.3434 721.13 88.3434C723.625 88.3434 725.647 90.3594 725.647 92.8464Z" fill="#FFCC00"/>
<path d="M741.979 63.6345C744.474 63.6345 746.496 61.6185 746.496 59.1315C746.496 56.6446 744.474 54.6285 741.979 54.6285C739.484 54.6285 737.462 56.6446 737.462 59.1315C737.462 61.6185 739.484 63.6345 741.979 63.6345Z" fill="#FFCC00"/>
<path d="M760.163 61.9026C760.163 64.3896 758.141 66.4056 755.646 66.4056C753.151 66.4056 751.129 64.3896 751.129 61.9026C751.129 59.4157 753.151 57.3996 755.646 57.3996C758.141 57.3996 760.163 59.4157 760.163 61.9026Z" fill="#FFCC00"/>
<path d="M755.646 105.663C758.141 105.663 760.163 103.647 760.163 101.16C760.163 98.6727 758.141 96.6566 755.646 96.6566C753.151 96.6566 751.129 98.6727 751.129 101.16C751.129 103.647 753.151 105.663 755.646 105.663Z" fill="#FFCC00"/>
<path d="M791.668 60.2861C791.668 62.7731 789.646 64.7892 787.151 64.7892C784.656 64.7892 782.634 62.7731 782.634 60.2861C782.634 57.7992 784.656 55.7831 787.151 55.7831C789.646 55.7831 791.668 57.7992 791.668 60.2861Z" fill="#FFCC00"/>
<path d="M787.151 104.97C789.646 104.97 791.668 102.954 791.668 100.467C791.668 97.9799 789.646 95.9639 787.151 95.9639C784.656 95.9639 782.634 97.9799 782.634 100.467C782.634 102.954 784.656 104.97 787.151 104.97Z" fill="#FFCC00"/>
<path d="M806.03 74.6034C806.03 77.0904 804.008 79.1064 801.513 79.1064C799.018 79.1064 796.996 77.0904 796.996 74.6034C796.996 72.1165 799.018 70.1004 801.513 70.1004C804.008 70.1004 806.03 72.1165 806.03 74.6034Z" fill="#FFCC00"/>
<path d="M824.678 51.6265C827.173 51.6265 829.195 49.6104 829.195 47.1235C829.195 44.6366 827.173 42.6205 824.678 42.6205C822.183 42.6205 820.161 44.6366 820.161 47.1235C820.161 49.6104 822.183 51.6265 824.678 51.6265Z" fill="#FFCC00"/>
<path d="M829.89 103.007C829.89 105.494 827.868 107.51 825.373 107.51C822.878 107.51 820.856 105.494 820.856 103.007C820.856 100.52 822.878 98.504 825.373 98.504C827.868 98.504 829.89 100.52 829.89 103.007Z" fill="#FFCC00"/>
<path d="M370.411 84.4177C372.906 84.4177 374.928 82.4016 374.928 79.9147C374.928 77.4277 372.906 75.4116 370.411 75.4116C367.916 75.4116 365.894 77.4277 365.894 79.9147C365.894 82.4016 367.916 84.4177 370.411 84.4177Z" fill="#FFCC00"/>
<path d="M221.344 88.9207C221.344 91.4076 219.321 93.4237 216.826 93.4237C214.332 93.4237 212.309 91.4076 212.309 88.9207C212.309 86.4337 214.332 84.4177 216.826 84.4177C219.321 84.4177 221.344 86.4337 221.344 88.9207Z" fill="#FFCC00"/>
<path d="M215.205 53.7048C217.7 53.7048 219.722 51.6887 219.722 49.2018C219.722 46.7149 217.7 44.6988 215.205 44.6988C212.71 44.6988 210.688 46.7149 210.688 49.2018C210.688 51.6887 212.71 53.7048 215.205 53.7048Z" fill="#FFCC00"/>
<path d="M251.458 43.1978C251.458 45.6847 249.436 47.7008 246.941 47.7008C244.446 47.7008 242.424 45.6847 242.424 43.1978C242.424 40.7109 244.446 38.6948 246.941 38.6948C249.436 38.6948 251.458 40.7109 251.458 43.1978Z" fill="#FFCC00"/>
<path d="M244.041 72.0292C244.039 72.0793 244.036 72.1291 244.032 72.1787C244.041 72.293 244.045 72.4085 244.045 72.5251C244.045 75.012 242.023 77.0281 239.528 77.0281C237.033 77.0281 235.011 75.012 235.011 72.5251C235.011 72.4085 235.016 72.293 235.024 72.1787C235.016 72.0644 235.011 71.9489 235.011 71.8323C235.011 69.3454 237.033 67.3293 239.528 67.3293C242.023 67.3293 244.045 69.3454 244.045 71.8323C244.045 71.8983 244.044 71.9639 244.041 72.0292Z" fill="#FFCC00"/>
<path d="M253.196 88.8052C255.69 88.8052 257.713 86.7892 257.713 84.3022C257.713 81.8153 255.69 79.7992 253.196 79.7992C250.701 79.7992 248.678 81.8153 248.678 84.3022C248.678 86.7892 250.701 88.8052 253.196 88.8052Z" fill="#FFCC00"/>
</g>
<g filter="url(#filter3_ddd)">
<path d="M792.363 40.8885C792.363 43.3754 790.34 45.3915 787.846 45.3915C785.351 45.3915 783.328 43.3754 783.328 40.8885C783.328 38.4016 785.351 36.3855 787.846 36.3855C790.34 36.3855 792.363 38.4016 792.363 40.8885Z" fill="#FFFF00"/>
<path d="M758.542 42.7359C758.542 45.2228 756.519 47.2389 754.025 47.2389C751.53 47.2389 749.507 45.2228 749.507 42.7359C749.507 40.249 751.53 38.2329 754.025 38.2329C756.519 38.2329 758.542 40.249 758.542 42.7359Z" fill="#FFFF00"/>
<path d="M537.894 47.7008C540.389 47.7008 542.412 45.6847 542.412 43.1977C542.412 40.7108 540.389 38.6947 537.894 38.6947C535.4 38.6947 533.377 40.7108 533.377 43.1977C533.377 45.6847 535.4 47.7008 537.894 47.7008Z" fill="#FFFF00"/>
<path d="M311.456 44.1214C311.456 46.6084 309.433 48.6245 306.939 48.6245C304.444 48.6245 302.421 46.6084 302.421 44.1214C302.421 41.6345 304.444 39.6184 306.939 39.6184C309.433 39.6184 311.456 41.6345 311.456 44.1214Z" fill="#FFFF00"/>
<path d="M63.8211 48.509C63.8211 50.9959 61.7987 53.012 59.3039 53.012C56.8091 53.012 54.7867 50.9959 54.7867 48.509C54.7867 46.022 56.8091 44.006 59.3039 44.006C61.7987 44.006 63.8211 46.022 63.8211 48.509Z" fill="#FFFF00"/>
<path d="M71.9289 64.6736C71.9289 67.1606 69.9065 69.1767 67.4117 69.1767C64.9169 69.1767 62.8945 67.1606 62.8945 64.6736C62.8945 62.1867 64.9169 60.1706 67.4117 60.1706C69.9065 60.1706 71.9289 62.1867 71.9289 64.6736Z" fill="#FFFF00"/>
<path d="M43.7833 101.506C46.2781 101.506 48.3005 99.4899 48.3005 97.003C48.3005 94.516 46.2781 92.4999 43.7833 92.4999C41.2885 92.4999 39.2661 94.516 39.2661 97.003C39.2661 99.4899 41.2885 101.506 43.7833 101.506Z" fill="#FFFF00"/>
<path d="M85.5963 103.7C85.5963 106.187 83.5738 108.203 81.0791 108.203C78.5843 108.203 76.5619 106.187 76.5619 103.7C76.5619 101.213 78.5843 99.1967 81.0791 99.1967C83.5738 99.1967 85.5963 101.213 85.5963 103.7Z" fill="#FFFF00"/>
<path d="M119.765 89.9598C122.26 89.9598 124.282 87.9437 124.282 85.4568C124.282 82.9698 122.26 80.9538 119.765 80.9538C117.27 80.9538 115.248 82.9698 115.248 85.4568C115.248 87.9437 117.27 89.9598 119.765 89.9598Z" fill="#FFFF00"/>
<path d="M152.08 60.9789C152.08 63.4658 150.058 65.4819 147.563 65.4819C145.068 65.4819 143.046 63.4658 143.046 60.9789C143.046 58.4919 145.068 56.4759 147.563 56.4759C150.058 56.4759 152.08 58.4919 152.08 60.9789Z" fill="#FFFF00"/>
<path d="M178.372 70.7931C180.867 70.7931 182.89 68.7771 182.89 66.2901C182.89 63.8032 180.867 61.7871 178.372 61.7871C175.878 61.7871 173.855 63.8032 173.855 66.2901C173.855 68.7771 175.878 70.7931 178.372 70.7931Z" fill="#FFFF00"/>
<path d="M222.965 108.318C222.965 110.805 220.943 112.821 218.448 112.821C215.953 112.821 213.931 110.805 213.931 108.318C213.931 105.831 215.953 103.815 218.448 103.815C220.943 103.815 222.965 105.831 222.965 108.318Z" fill="#FFFF00"/>
<path d="M254.354 108.203C256.849 108.203 258.871 106.187 258.871 103.7C258.871 101.213 256.849 99.1967 254.354 99.1967C251.859 99.1967 249.837 101.213 249.837 103.7C249.837 106.187 251.859 108.203 254.354 108.203Z" fill="#FFFF00"/>
<path d="M284.121 112.706C284.121 115.193 282.099 117.209 279.604 117.209C277.109 117.209 275.087 115.193 275.087 112.706C275.087 110.219 277.109 108.203 279.604 108.203C282.099 108.203 284.121 110.219 284.121 112.706Z" fill="#FFFF00"/>
<path d="M288.638 78.4136C291.133 78.4136 293.155 76.3975 293.155 73.9106C293.155 71.4236 291.133 69.4076 288.638 69.4076C286.143 69.4076 284.121 71.4236 284.121 73.9106C284.121 76.3975 286.143 78.4136 288.638 78.4136Z" fill="#FFFF00"/>
<path d="M324.081 79.7991C326.576 79.7991 328.598 77.7831 328.598 75.2961C328.598 72.8092 326.576 70.7931 324.081 70.7931C321.586 70.7931 319.564 72.8092 319.564 75.2961C319.564 77.7831 321.586 79.7991 324.081 79.7991Z" fill="#FFFF00"/>
<path d="M337.632 110.627C337.632 113.114 335.61 115.13 333.115 115.13C330.62 115.13 328.598 113.114 328.598 110.627C328.598 108.141 330.62 106.124 333.115 106.124C335.61 106.124 337.632 108.141 337.632 110.627Z" fill="#FFFF00"/>
<path d="M359.06 115.13C361.555 115.13 363.577 113.114 363.577 110.627C363.577 108.141 361.555 106.124 359.06 106.124C356.565 106.124 354.543 108.141 354.543 110.627C354.543 113.114 356.565 115.13 359.06 115.13Z" fill="#FFFF00"/>
<path d="M361.724 71.3704C361.724 73.8574 359.702 75.8734 357.207 75.8734C354.712 75.8734 352.69 73.8574 352.69 71.3704C352.69 68.8835 354.712 66.8674 357.207 66.8674C359.702 66.8674 361.724 68.8835 361.724 71.3704Z" fill="#FFFF00"/>
<path d="M392.186 51.3955C394.681 51.3955 396.703 49.3795 396.703 46.8925C396.703 44.4056 394.681 42.3895 392.186 42.3895C389.691 42.3895 387.669 44.4056 387.669 46.8925C387.669 49.3795 389.691 51.3955 392.186 51.3955Z" fill="#FFFF00"/>
<path d="M445.582 52.4347C445.582 54.9216 443.559 56.9377 441.064 56.9377C438.57 56.9377 436.547 54.9216 436.547 52.4347C436.547 49.9478 438.57 47.9317 441.064 47.9317C443.559 47.9317 445.582 49.9478 445.582 52.4347Z" fill="#FFFF00"/>
<path d="M441.064 96.6566C443.559 96.6566 445.582 94.6405 445.582 92.1536C445.582 89.6666 443.559 87.6505 441.064 87.6505C438.57 87.6505 436.547 89.6666 436.547 92.1536C436.547 94.6405 438.57 96.6566 441.064 96.6566Z" fill="#FFFF00"/>
<path d="M494.46 99.0813C494.46 101.568 492.438 103.584 489.943 103.584C487.448 103.584 485.426 101.568 485.426 99.0813C485.426 96.5943 487.448 94.5783 489.943 94.5783C492.438 94.5783 494.46 96.5943 494.46 99.0813Z" fill="#FFFF00"/>
<path d="M489.943 63.4036C492.438 63.4036 494.46 61.3875 494.46 58.9006C494.46 56.4136 492.438 54.3975 489.943 54.3975C487.448 54.3975 485.426 56.4136 485.426 58.9006C485.426 61.3875 487.448 63.4036 489.943 63.4036Z" fill="#FFFF00"/>
<path d="M520.405 69.9849C520.405 72.4718 518.382 74.4879 515.888 74.4879C513.393 74.4879 511.37 72.4718 511.37 69.9849C511.37 67.4979 513.393 65.4819 515.888 65.4819C518.382 65.4819 520.405 67.4979 520.405 69.9849Z" fill="#FFFF00"/>
<path d="M541.253 82.4548C541.253 84.9417 539.231 86.9578 536.736 86.9578C534.241 86.9578 532.219 84.9417 532.219 82.4548C532.219 79.9678 534.241 77.9518 536.736 77.9518C539.231 77.9518 541.253 79.9678 541.253 82.4548Z" fill="#FFFF00"/>
<path d="M580.981 48.6245C583.476 48.6245 585.499 46.6084 585.499 44.1214C585.499 41.6345 583.476 39.6184 580.981 39.6184C578.487 39.6184 576.464 41.6345 576.464 44.1214C576.464 46.6084 578.487 48.6245 580.981 48.6245Z" fill="#FFFF00"/>
<path d="M611.444 64.6736C611.444 67.1606 609.421 69.1767 606.926 69.1767C604.432 69.1767 602.409 67.1606 602.409 64.6736C602.409 62.1867 604.432 60.1706 606.926 60.1706C609.421 60.1706 611.444 62.1867 611.444 64.6736Z" fill="#FFFF00"/>
<path d="M568.241 71.9477C570.735 71.9477 572.758 69.9317 572.758 67.4447C572.758 64.9578 570.735 62.9417 568.241 62.9417C565.746 62.9417 563.724 64.9578 563.724 67.4447C563.724 69.9317 565.746 71.9477 568.241 71.9477Z" fill="#FFFF00"/>
<path d="M572.758 106.24C572.758 108.727 570.735 110.743 568.241 110.743C565.746 110.743 563.724 108.727 563.724 106.24C563.724 103.753 565.746 101.737 568.241 101.737C570.735 101.737 572.758 103.753 572.758 106.24Z" fill="#FFFF00"/>
<path d="M635.188 48.3935C637.683 48.3935 639.705 46.3775 639.705 43.8905C639.705 41.4036 637.683 39.3875 635.188 39.3875C632.693 39.3875 630.671 41.4036 630.671 43.8905C630.671 46.3775 632.693 48.3935 635.188 48.3935Z" fill="#FFFF00"/>
<path d="M639.705 83.1475C639.705 85.6345 637.683 87.6505 635.188 87.6505C632.693 87.6505 630.671 85.6345 630.671 83.1475C630.671 80.6606 632.693 78.6445 635.188 78.6445C637.683 78.6445 639.705 80.6606 639.705 83.1475Z" fill="#FFFF00"/>
<path d="M676.422 67.3293C678.916 67.3293 680.939 65.3132 680.939 62.8263C680.939 60.3393 678.916 58.3232 676.422 58.3232C673.927 58.3232 671.904 60.3393 671.904 62.8263C671.904 65.3132 673.927 67.3293 676.422 67.3293Z" fill="#FFFF00"/>
<path d="M680.939 103.007C680.939 105.494 678.916 107.51 676.422 107.51C673.927 107.51 671.904 105.494 671.904 103.007C671.904 100.52 673.927 98.504 676.422 98.504C678.916 98.504 680.939 100.52 680.939 103.007Z" fill="#FFFF00"/>
<path d="M709.779 65.7128C712.274 65.7128 714.297 63.6967 714.297 61.2098C714.297 58.7228 712.274 56.7068 709.779 56.7068C707.285 56.7068 705.262 58.7228 705.262 61.2098C705.262 63.6967 707.285 65.7128 709.779 65.7128Z" fill="#FFFF00"/>
<path d="M714.297 101.852C714.297 104.339 712.274 106.355 709.779 106.355C707.285 106.355 705.262 104.339 705.262 101.852C705.262 99.3654 707.285 97.3493 709.779 97.3493C712.274 97.3493 714.297 99.3654 714.297 101.852Z" fill="#FFFF00"/>
<path d="M731.555 80.4919C734.049 80.4919 736.072 78.4758 736.072 75.9889C736.072 73.502 734.049 71.4859 731.555 71.4859C729.06 71.4859 727.037 73.502 727.037 75.9889C727.037 78.4758 729.06 80.4919 731.555 80.4919Z" fill="#FFFF00"/>
<path d="M755.646 86.0341C758.141 86.0341 760.163 84.018 760.163 81.5311C760.163 79.0441 758.141 77.0281 755.646 77.0281C753.151 77.0281 751.129 79.0441 751.129 81.5311C751.129 84.018 753.151 86.0341 755.646 86.0341Z" fill="#FFFF00"/>
<path d="M787.151 84.8795C789.645 84.8795 791.668 82.8634 791.668 80.3764C791.668 77.8895 789.645 75.8734 787.151 75.8734C784.656 75.8734 782.633 77.8895 782.633 80.3764C782.633 82.8634 784.656 84.8795 787.151 84.8795Z" fill="#FFFF00"/>
<path d="M823.172 64.9046C823.172 67.3915 821.15 69.4076 818.655 69.4076C816.16 69.4076 814.138 67.3915 814.138 64.9046C814.138 62.4176 816.16 60.4016 818.655 60.4016C821.15 60.4016 823.172 62.4176 823.172 64.9046Z" fill="#FFFF00"/>
<path d="M820.045 88.3433C822.54 88.3433 824.562 86.3272 824.562 83.8403C824.562 81.3534 822.54 79.3373 820.045 79.3373C817.55 79.3373 815.528 81.3534 815.528 83.8403C815.528 86.3272 817.55 88.3433 820.045 88.3433Z" fill="#FFFF00"/>
<path d="M391.607 80.6074C391.607 83.0943 389.585 85.1104 387.09 85.1104C384.595 85.1104 382.573 83.0943 382.573 80.6074C382.573 78.1204 384.595 76.1044 387.09 76.1044C389.585 76.1044 391.607 78.1204 391.607 80.6074Z" fill="#FFFF00"/>
<path d="M215.205 74.0261C217.7 74.0261 219.722 72.01 219.722 69.523C219.722 67.0361 217.7 65.02 215.205 65.02C212.71 65.02 210.688 67.0361 210.688 69.523C210.688 72.01 212.71 74.0261 215.205 74.0261Z" fill="#FFFF00"/>
<path d="M231.305 44.5833C231.305 47.0702 229.282 49.0863 226.787 49.0863C224.293 49.0863 222.27 47.0702 222.27 44.5833C222.27 42.0963 224.293 40.0803 226.787 40.0803C229.282 40.0803 231.305 42.0963 231.305 44.5833Z" fill="#FFFF00"/>
<path d="M255.975 65.4819C258.47 65.4819 260.493 63.4658 260.493 60.9789C260.493 58.4919 258.47 56.4759 255.975 56.4759C253.481 56.4759 251.458 58.4919 251.458 60.9789C251.458 63.4658 253.481 65.4819 255.975 65.4819Z" fill="#FFFF00"/>
<path d="M187.291 87.5351C187.291 90.022 185.269 92.0381 182.774 92.0381C180.279 92.0381 178.257 90.022 178.257 87.5351C178.257 85.0481 180.279 83.0321 182.774 83.0321C185.269 83.0321 187.291 85.0481 187.291 87.5351Z" fill="#FFFF00"/>
<path d="M147.563 105.201C150.058 105.201 152.08 103.185 152.08 100.698C152.08 98.2108 150.058 96.1947 147.563 96.1947C145.068 96.1947 143.046 98.2108 143.046 100.698C143.046 103.185 145.068 105.201 147.563 105.201Z" fill="#FFFF00"/>
</g>
<defs>
<filter id="filter0_ddd" x="208.538" y="93.005" width="511.151" height="208.176" filterUnits="userSpaceOnUse" color-interpolation-filters="sRGB">
<feFlood flood-opacity="0" result="BackgroundImageFix"/>
<feColorMatrix in="SourceAlpha" type="matrix" values="0 0 0 0 0 0 0 0 0 0 0 0 0 0 0 0 0 0 127 0"/>
<feOffset dy="1.83194"/>
<feGaussianBlur stdDeviation="17.1744"/>
<feColorMatrix type="matrix" values="0 0 0 0 0.211765 0 0 0 0 0.67451 0 0 0 0 0.929412 0 0 0 1 0"/>
<feBlend mode="normal" in2="BackgroundImageFix" result="effect1_dropShadow"/>
<feColorMatrix in="SourceAlpha" type="matrix" values="0 0 0 0 0 0 0 0 0 0 0 0 0 0 0 0 0 0 127 0"/>
<feOffset dy="1.83194"/>
<feGaussianBlur stdDeviation="11.4496"/>
<feColorMatrix type="matrix" values="0 0 0 0 0.211765 0 0 0 0 0.67451 0 0 0 0 0.929412 0 0 0 1 0"/>
<feBlend mode="normal" in2="effect1_dropShadow" result="effect2_dropShadow"/>
<feColorMatrix in="SourceAlpha" type="matrix" values="0 0 0 0 0 0 0 0 0 0 0 0 0 0 0 0 0 0 127 0"/>
<feOffset dx="4.1648" dy="8.3296"/>
<feGaussianBlur stdDeviation="4.1648"/>
<feColorMatrix type="matrix" values="0 0 0 0 0 0 0 0 0 0 0 0 0 0 0 0 0 0 0.25 0"/>
<feBlend mode="normal" in2="effect2_dropShadow" result="effect3_dropShadow"/>
<feBlend mode="normal" in="SourceGraphic" in2="effect3_dropShadow" result="shape"/>
</filter>
<filter id="filter1_di" x="19.588" y="32.4476" width="839.154" height="104.148" filterUnits="userSpaceOnUse" color-interpolation-filters="sRGB">
<feFlood flood-opacity="0" result="BackgroundImageFix"/>
<feColorMatrix in="SourceAlpha" type="matrix" values="0 0 0 0 0 0 0 0 0 0 0 0 0 0 0 0 0 0 127 0"/>
<feOffset dx="4.1648" dy="8.3296"/>
<feGaussianBlur stdDeviation="7.2884"/>
<feColorMatrix type="matrix" values="0 0 0 0 0 0 0 0 0 0 0 0 0 0 0 0 0 0 0.5 0"/>
<feBlend mode="normal" in2="BackgroundImageFix" result="effect1_dropShadow"/>
<feBlend mode="normal" in="SourceGraphic" in2="effect1_dropShadow" result="shape"/>
<feColorMatrix in="SourceAlpha" type="matrix" values="0 0 0 0 0 0 0 0 0 0 0 0 0 0 0 0 0 0 127 0" result="hardAlpha"/>
<feOffset/>
<feGaussianBlur stdDeviation="11.4496"/>
<feComposite in2="hardAlpha" operator="arithmetic" k2="-1" k3="1"/>
<feColorMatrix type="matrix" values="0 0 0 0 0.3125 0 0 0 0 0 0 0 0 0 0 0 0 0 1 0"/>
<feBlend mode="normal" in2="shape" result="effect2_innerShadow"/>
</filter>
<filter id="filter2_ddd" x="0.515869" y="0.651123" width="863.723" height="150.214" filterUnits="userSpaceOnUse" color-interpolation-filters="sRGB">
<feFlood flood-opacity="0" result="BackgroundImageFix"/>
<feColorMatrix in="SourceAlpha" type="matrix" values="0 0 0 0 0 0 0 0 0 0 0 0 0 0 0 0 0 0 127 0"/>
<feOffset/>
<feGaussianBlur stdDeviation="17.1744"/>
<feColorMatrix type="matrix" values="0 0 0 0 1 0 0 0 0 0.780392 0 0 0 0 0 0 0 0 1 0"/>
<feBlend mode="normal" in2="BackgroundImageFix" result="effect1_dropShadow"/>
<feColorMatrix in="SourceAlpha" type="matrix" values="0 0 0 0 0 0 0 0 0 0 0 0 0 0 0 0 0 0 127 0"/>
<feOffset/>
<feGaussianBlur stdDeviation="11.4496"/>
<feColorMatrix type="matrix" values="0 0 0 0 1 0 0 0 0 0.780392 0 0 0 0 0 0 0 0 1 0"/>
<feBlend mode="normal" in2="effect1_dropShadow" result="effect2_dropShadow"/>
<feColorMatrix in="SourceAlpha" type="matrix" values="0 0 0 0 0 0 0 0 0 0 0 0 0 0 0 0 0 0 127 0"/>
<feOffset/>
<feGaussianBlur stdDeviation="5.72481"/>
<feColorMatrix type="matrix" values="0 0 0 0 1 0 0 0 0 0.780392 0 0 0 0 0 0 0 0 1 0"/>
<feBlend mode="normal" in2="effect2_dropShadow" result="effect3_dropShadow"/>
<feBlend mode="normal" in="SourceGraphic" in2="effect3_dropShadow" result="shape"/>
</filter>
<filter id="filter3_ddd" x="4.91724" y="2.03662" width="853.994" height="149.521" filterUnits="userSpaceOnUse" color-interpolation-filters="sRGB">
<feFlood flood-opacity="0" result="BackgroundImageFix"/>
<feColorMatrix in="SourceAlpha" type="matrix" values="0 0 0 0 0 0 0 0 0 0 0 0 0 0 0 0 0 0 127 0"/>
<feOffset/>
<feGaussianBlur stdDeviation="17.1744"/>
<feColorMatrix type="matrix" values="0 0 0 0 0.976471 0 0 0 0 0.937255 0 0 0 0 0 0 0 0 1 0"/>
<feBlend mode="normal" in2="BackgroundImageFix" result="effect1_dropShadow"/>
<feColorMatrix in="SourceAlpha" type="matrix" values="0 0 0 0 0 0 0 0 0 0 0 0 0 0 0 0 0 0 127 0"/>
<feOffset/>
<feGaussianBlur stdDeviation="11.4496"/>
<feColorMatrix type="matrix" values="0 0 0 0 0.976471 0 0 0 0 0.937255 0 0 0 0 0 0 0 0 1 0"/>
<feBlend mode="normal" in2="effect1_dropShadow" result="effect2_dropShadow"/>
<feColorMatrix in="SourceAlpha" type="matrix" values="0 0 0 0 0 0 0 0 0 0 0 0 0 0 0 0 0 0 127 0"/>
<feOffset/>
<feGaussianBlur stdDeviation="5.72481"/>
<feColorMatrix type="matrix" values="0 0 0 0 0.976471 0 0 0 0 0.937255 0 0 0 0 0 0 0 0 1 0"/>
<feBlend mode="normal" in2="effect2_dropShadow" result="effect3_dropShadow"/>
<feBlend mode="normal" in="SourceGraphic" in2="effect3_dropShadow" result="shape"/>
</filter>
</defs>
</svg>
