<svg width="250" height="94" viewBox="0 0 250 94" fill="none" xmlns="http://www.w3.org/2000/svg">
<path d="M250 0H0V93.0067H250V0Z" fill="#145A85"/>
<path d="M14.9307 60.7271L37.0579 60.7037L37.0462 38.5298C32.4432 47.3737 23.8096 53.1333 14.9423 55.3296C14.9657 57.0003 14.9307 60.7271 14.9307 60.7271Z" fill="white"/>
<path d="M21.999 49.5584C30.3522 45.2942 34.3711 37.4784 34.3711 37.4784C34.3711 37.4784 34.3477 34.9199 34.3477 34.8614C29.7447 33.2259 25.574 30.8309 22.0107 27.2443C22.0224 33.331 21.999 49.5584 21.999 49.5584Z" fill="white"/>
<path d="M23.1904 16.0054C23.1904 16.0054 23.1904 22.7931 23.1787 24.4754C25.3751 26.5432 26.4732 27.5012 28.7514 28.9849L28.7748 19.8957C26.1695 18.4354 25.1648 17.6643 23.1904 16.0054Z" fill="white"/>
<path d="M53.6471 23.7395C53.6471 23.9965 53.6238 24.2068 53.6004 24.4171C53.5069 24.9661 53.2266 25.3517 52.7592 25.5503C52.1401 25.819 51.4741 25.8891 50.5629 25.7839V22.3492C51.3923 22.2324 52.1984 22.209 52.9578 22.5945C53.4135 22.8282 53.6471 23.202 53.6471 23.7395ZM56.0071 23.1436C55.8201 21.9286 55.1425 21.1225 53.9976 20.737C53.4602 20.5501 52.8293 20.4449 52.0816 20.3982C51.626 20.3748 51.1704 20.4099 50.7264 20.4449C50.668 20.4449 50.6096 20.4566 50.5512 20.4566V17.8046L52.6775 17.8163L55.0374 18.1551L55.1308 15.9938H47.8525L48.1445 18.6925L48.1679 24.7208L47.8291 27.5831H48.2497C48.2497 27.5831 49.2427 27.5714 49.7217 27.5831C49.9787 27.5948 50.2357 27.6065 50.4811 27.6181C50.8316 27.6415 51.1937 27.6532 51.5676 27.6532C51.6494 27.6532 51.7312 27.6532 51.8129 27.6532C53.1798 27.6181 54.2313 27.2676 55.0023 26.6017C56.229 25.562 56.1706 24.1367 56.0071 23.1436Z" fill="white"/>
<path d="M62.5382 22.1272C62.1643 22.1272 61.7788 22.1389 61.3815 22.1505C61.0077 22.1622 60.6222 22.1739 60.2483 22.1739C60.4703 21.6248 60.704 21.0641 60.9259 20.515C61.1012 20.1061 61.2764 19.6855 61.44 19.2883L62.5382 22.1272ZM63.2391 17.3256L62.8886 15.9003L60.4937 15.9353L60.2133 17.1971L57.316 24.7909L56.0542 27.513L58.566 27.548L58.9983 25.4685L59.6058 23.8913L63.2158 23.8796L64.0452 25.9007L64.4892 27.5246H67.737L66.6271 25.597L63.2391 17.3256Z" fill="white"/>
<path d="M86.4997 27.5363L89.8059 27.5012L84.5487 21.4729L89.4788 15.9703L86.5815 15.9937L85.717 17.2204C85.717 17.2204 83.4972 19.6971 82.2822 21.0523V18.0499L82.621 16.0054H79.5835L79.7704 18.0265L79.8171 25.153L79.5835 27.5246H82.621L82.2822 25.1647V22.3258L86.4997 27.5363Z" fill="white"/>
<path d="M77.5156 24.0782C77.5039 23.3071 77.5506 18.0966 77.5506 18.1083L77.8193 16.0404H74.8168L75.0622 18.0382C75.0622 18.0382 75.0739 19.5569 75.0739 20.4682H70.833C70.8097 19.1597 70.8213 17.8162 71.1485 16.5077L71.2653 16.0404H68.146L68.1927 16.461C68.2161 16.6129 68.3913 18.2134 68.4147 18.9611C68.4614 20.5149 68.4497 22.1038 68.438 23.6342V23.973C68.438 24.6272 68.2862 26.6367 68.2161 26.9989L68.1343 27.4428H71.1485L71.1017 27.0222C71.0667 26.7535 71.0433 26.4848 71.0083 26.2278C70.9382 25.632 70.8564 25.0595 70.833 24.4871C70.798 23.9146 70.8097 23.3071 70.8213 22.7346C70.8213 22.5944 70.8213 22.4659 70.8213 22.3258H75.1439C75.1439 22.6178 75.144 22.8982 75.1556 23.1903C75.179 24.5104 75.1907 25.7488 74.8519 26.9755L74.7234 27.4545H77.8778L77.796 27.0105C77.5506 25.9357 77.5156 24.8726 77.5156 24.0782Z" fill="white"/>
<path d="M115.368 33.2375L115.461 32.7819H109.024L109.07 33.2141C109.304 35.1651 109.468 36.9993 109.573 38.8219C109.655 40.1303 109.631 41.4739 109.62 42.7706C109.608 43.238 109.608 43.6936 109.608 44.1609H97.5629C97.4928 40.5743 97.4578 36.8825 98.3691 33.2725L98.4859 32.7935H91.8501L91.9085 33.2258C91.9202 33.2609 92.4108 37.6185 92.4693 39.6981C92.5861 43.6819 92.551 47.7475 92.516 51.6729L92.5043 52.6076C92.4926 54.3132 92.1071 59.5354 91.9319 60.4701L91.8384 60.9257H98.2289L98.1821 60.5051C98.1003 59.8275 98.0186 59.1499 97.9368 58.4723C97.7499 56.9886 97.5513 55.4581 97.4695 53.9511C97.3877 52.444 97.3994 50.9019 97.4227 49.4065C97.4344 48.8574 97.4344 48.32 97.4344 47.7709H109.678C109.666 48.7055 109.69 49.6401 109.701 50.5514C109.748 53.9744 109.795 57.1989 108.919 60.4467L108.79 60.9374H115.449L115.368 60.4817C114.842 57.7129 114.76 54.9675 114.737 52.8763C114.713 50.7967 114.737 41.5907 114.818 39.0438C114.9 36.5788 115.075 34.6862 115.368 33.2375Z" fill="white"/>
<path d="M76.0781 57.4793V47.5139C79.1507 47.6073 85.0271 48.0746 85.0856 48.0746L85.4945 48.1097L85.5062 43.53L76.0781 44.0674V36.2049C78.8937 36.1699 84.1509 36.1465 86.8847 36.9993L87.317 37.1279L87.3754 36.6839C87.5623 35.2352 87.4338 33.2258 87.4221 33.1323L87.3988 32.7819H70.3769L70.447 33.2258C71.0195 36.9176 70.9844 40.6677 70.9494 44.2894C70.9377 45.1306 70.926 45.9717 70.926 46.8129C70.9728 52.1753 70.4003 60.3883 70.3886 60.4701L70.3652 60.879L87.2936 60.9607L87.3053 60.5869C87.3286 59.6756 87.4104 57.2339 87.4572 56.8718L87.5156 56.346L87.0015 56.4512C83.6252 57.1638 80.4358 57.4559 76.0781 57.4793Z" fill="white"/>
<path d="M61.615 45.154C61.6851 45.1073 61.7669 45.0488 61.837 45.0021C63.3674 43.9507 65.1315 42.3969 65.2367 39.7566C65.3886 36.0998 63.4142 33.5179 59.8392 32.6768C56.7433 31.9525 53.5656 32.0693 50.1075 33.0273L50.0608 33.039C48.3901 33.5063 48.098 33.6581 48.1565 34.0553C48.2499 34.7914 48.3901 35.6208 48.5303 36.427C48.6354 37.0111 48.7289 37.6069 48.8223 38.1794C48.8574 38.3897 48.9976 38.5649 49.2079 38.635C49.4065 38.6934 49.6285 38.6467 49.7687 38.4831L49.979 38.2495C51.6029 36.5204 53.7174 35.7026 56.4162 35.761C58.1335 35.7961 59.5588 36.8943 59.8859 38.4247C60.3299 40.551 59.5822 42.3852 57.9583 43.1095C57.1872 43.46 56.276 43.717 55.2012 43.9156C54.1497 44.1025 52.0702 44.2427 52.0585 44.2427L51.6846 44.2661L51.8365 47.841L52.2104 47.8294C52.2337 47.8294 54.0796 47.7709 55.6217 47.7709C56.3227 47.7709 58.5541 47.9228 59.6874 48.6121C60.6921 49.2196 61.4164 50.2243 61.615 51.2758C61.9188 52.8763 62.1875 56.6849 58.0868 57.5845C54.5353 58.3672 51.6496 57.5845 49.5 55.2362C49.313 55.0376 49.1261 54.839 48.9158 54.6054L48.6938 54.36C48.5537 54.2082 48.355 54.1614 48.1681 54.2199C47.9812 54.2783 47.8527 54.4418 47.8293 54.6404L47.7242 55.5166C47.619 56.3812 47.5256 57.1873 47.397 57.9817C47.2919 58.671 47.5139 59.1149 48.1565 59.4771C50.5514 60.7973 53.1917 61.4632 56.0073 61.4632C56.5447 61.4632 57.0938 61.4398 57.6429 61.3931C59.9093 61.1945 62.0006 60.3533 63.6712 58.9631C66.1012 56.9419 67.2111 54.4885 66.9541 51.673C66.6737 48.5186 64.8745 46.2989 61.615 45.154Z" fill="white"/>
<path d="M142.728 48.6472C142.728 48.0513 142.728 47.4555 142.728 46.8597C142.728 46.3106 142.728 45.7615 142.728 45.2007C142.705 41.2169 142.693 37.1046 143.394 33.2259L143.476 32.7703H136.84L136.922 33.2259C137.144 34.4292 137.343 35.7026 137.495 37.0228C137.541 37.4317 137.495 37.6303 137.284 37.864C135.181 40.1538 133.113 42.4787 131.116 44.7218C129.293 46.7779 127.412 48.8925 125.508 50.9837C125.555 49.2196 125.52 47.4672 125.485 45.7615C125.403 41.4506 125.321 37.385 126.373 33.2843L126.501 32.8053H119.702L119.854 33.296C120.484 35.3872 120.496 37.4434 120.496 39.6281L120.508 41.7193C120.519 45.376 120.531 49.1612 120.496 52.888C120.484 53.4488 120.508 54.0096 120.519 54.5587C120.543 55.5867 120.578 56.6499 120.473 57.678C120.414 58.2971 120.262 58.9047 120.122 59.5589C120.052 59.851 119.982 60.1547 119.924 60.4585L119.83 60.9141H126.373L126.302 60.4701C126.162 59.5589 126.069 58.6476 125.975 57.7714C125.917 57.2574 125.87 56.7433 125.812 56.241C125.788 56.0307 125.882 55.7152 126.01 55.5751C127.88 53.5306 129.714 51.451 131.501 49.4416C133.522 47.1634 135.602 44.8152 137.728 42.502C137.728 42.7357 137.728 42.9693 137.728 43.203C137.728 44.2895 137.728 45.3292 137.717 46.3573C137.705 47.6074 137.717 48.8691 137.728 50.0841C137.752 51.9651 137.775 53.9044 137.693 55.8204C137.646 56.8719 137.471 57.9116 137.284 59.0098C137.202 59.5005 137.121 59.9912 137.051 60.4935L136.992 60.9375H143.511L143.429 60.4818C142.705 56.7433 142.717 52.631 142.728 48.6472Z" fill="white"/>
<path d="M159.47 36.532C159.47 36.4736 159.47 36.3918 159.482 36.2984L167.859 37.3849L167.321 32.7351H146.374L145.907 37.3849L154.879 36.2867V36.7774C154.879 40.2939 154.867 53.3903 154.867 54.0328L154.003 60.9023H160.358L159.564 54.1614C159.576 54.0445 159.494 42.3384 159.47 36.532Z" fill="white"/>
<path d="M235.057 16.1106V18.2719H233.305V27.5597H231.074V18.2719H229.31V16.1106H235.057Z" fill="white"/>
<path d="M234.17 32.4431V36.0765H218.036V40.9131C227.078 41.8361 234.17 49.5818 234.17 58.9747C234.17 68.9869 226.132 77.1298 216.248 77.1298H214.461V73.4964H216.248C224.158 73.4964 230.583 66.9774 230.583 58.9747C230.583 50.972 224.146 44.453 216.248 44.453H214.461V32.4431H234.17Z" fill="white"/>
<path d="M228.562 25.2933V27.5597H223.328V16.1106H228.562V18.2719H225.56V20.7019H228.176V22.8749H225.56V25.2933H228.562Z" fill="white"/>
<path d="M221.716 16.1106V27.5714H219.485V18.2018H218.106V20.959C218.106 21.1225 218.106 21.3912 218.094 21.7884C218.083 22.1856 218.059 22.6179 218.013 23.0852C217.978 23.5525 217.907 24.0315 217.826 24.4872C217.744 24.9778 217.627 25.375 217.475 25.7138C217.218 26.2746 216.879 26.7303 216.47 27.0574C216.038 27.4079 215.512 27.5831 214.905 27.5831H214.461V25.34L214.8 25.3166C215.01 25.305 215.174 25.2465 215.279 25.1414C215.407 25.0129 215.524 24.8493 215.618 24.6507C215.688 24.4755 215.758 24.2418 215.804 23.9731C215.863 23.681 215.898 23.3656 215.921 23.0385C215.956 22.7114 215.968 22.3609 215.98 21.9987C215.991 21.6366 215.991 21.2978 215.991 20.9706V16.1223H221.716V16.1106Z" fill="white"/>
<path d="M218.048 57.1522V60.7855H190.056V48.7756H191.843C199.752 48.7756 206.178 42.2683 206.178 34.2539C206.178 26.2512 199.752 19.7322 191.843 19.7322H190.044V16.0989H191.843C201.727 16.0989 209.765 24.2418 209.765 34.2539C209.765 43.9974 202.147 51.9767 193.631 52.3856V57.1522H218.048Z" fill="white"/>
</svg>
